<?xml version="1.0" encoding="us-ascii" standalone="no"?><svg xmlns="http://www.w3.org/2000/svg" xmlns:xlink="http://www.w3.org/1999/xlink" contentStyleType="text/css" height="681px" preserveAspectRatio="none" style="width:1014px;height:681px;background:#FFFFFF;" version="1.1" viewBox="0 0 1014 681" width="1014px" zoomAndPan="magnify"><defs/><g><rect fill="none" height="397.3027" style="stroke:#000000;stroke-width:1.5;" width="997" x="10" y="186.4199"/><line style="stroke:#181818;stroke-width:0.5;stroke-dasharray:5.0,5.0;" x1="38" x2="38" y1="81.4883" y2="600.7227"/><line style="stroke:#181818;stroke-width:0.5;stroke-dasharray:5.0,5.0;" x1="351" x2="351" y1="81.4883" y2="600.7227"/><line style="stroke:#181818;stroke-width:0.5;stroke-dasharray:5.0,5.0;" x1="562.5" x2="562.5" y1="81.4883" y2="600.7227"/><line style="stroke:#181818;stroke-width:0.5;stroke-dasharray:5.0,5.0;" x1="671.5" x2="671.5" y1="81.4883" y2="600.7227"/><line style="stroke:#181818;stroke-width:0.5;stroke-dasharray:5.0,5.0;" x1="777.5" x2="777.5" y1="81.4883" y2="600.7227"/><line style="stroke:#181818;stroke-width:0.5;stroke-dasharray:5.0,5.0;" x1="877.5" x2="877.5" y1="81.4883" y2="600.7227"/><text fill="#000000" font-family="sans-serif" font-size="14" lengthAdjust="spacing" textLength="31" x="20" y="78.5352">User</text><ellipse cx="38.5" cy="13.5" fill="#E2E2F0" rx="8" ry="8" style="stroke:#181818;stroke-width:0.5;"/><path d="M38.5,21.5 L38.5,48.5 M25.5,29.5 L51.5,29.5 M38.5,48.5 L25.5,63.5 M38.5,48.5 L51.5,63.5 " fill="none" style="stroke:#181818;stroke-width:0.5;"/><text fill="#000000" font-family="sans-serif" font-size="14" lengthAdjust="spacing" textLength="31" x="20" y="613.2578">User</text><ellipse cx="38.5" cy="624.7109" fill="#E2E2F0" rx="8" ry="8" style="stroke:#181818;stroke-width:0.5;"/><path d="M38.5,632.7109 L38.5,659.7109 M25.5,640.7109 L51.5,640.7109 M38.5,659.7109 L25.5,674.7109 M38.5,659.7109 L51.5,674.7109 " fill="none" style="stroke:#181818;stroke-width:0.5;"/><rect fill="#E2E2F0" height="30.4883" rx="2.5" ry="2.5" style="stroke:#181818;stroke-width:0.5;" width="141" x="281" y="50"/><text fill="#000000" font-family="sans-serif" font-size="14" lengthAdjust="spacing" textLength="127" x="288" y="70.5352">Resume Parser API</text><rect fill="#E2E2F0" height="30.4883" rx="2.5" ry="2.5" style="stroke:#181818;stroke-width:0.5;" width="141" x="281" y="599.7227"/><text fill="#000000" font-family="sans-serif" font-size="14" lengthAdjust="spacing" textLength="127" x="288" y="620.2578">Resume Parser API</text><rect fill="#E2E2F0" height="30.4883" rx="2.5" ry="2.5" style="stroke:#181818;stroke-width:0.5;" width="112" x="506.5" y="50"/><text fill="#000000" font-family="sans-serif" font-size="14" lengthAdjust="spacing" textLength="98" x="513.5" y="70.5352">Text Extractor</text><rect fill="#E2E2F0" height="30.4883" rx="2.5" ry="2.5" style="stroke:#181818;stroke-width:0.5;" width="112" x="506.5" y="599.7227"/><text fill="#000000" font-family="sans-serif" font-size="14" lengthAdjust="spacing" textLength="98" x="513.5" y="620.2578">Text Extractor</text><rect fill="#E2E2F0" height="30.4883" rx="2.5" ry="2.5" style="stroke:#181818;stroke-width:0.5;" width="87" x="628.5" y="50"/><text fill="#000000" font-family="sans-serif" font-size="14" lengthAdjust="spacing" textLength="73" x="635.5" y="70.5352">NER Model</text><rect fill="#E2E2F0" height="30.4883" rx="2.5" ry="2.5" style="stroke:#181818;stroke-width:0.5;" width="87" x="628.5" y="599.7227"/><text fill="#000000" font-family="sans-serif" font-size="14" lengthAdjust="spacing" textLength="73" x="635.5" y="620.2578">NER Model</text><rect fill="#E2E2F0" height="30.4883" rx="2.5" ry="2.5" style="stroke:#181818;stroke-width:0.5;" width="104" x="725.5" y="50"/><text fill="#000000" font-family="sans-serif" font-size="14" lengthAdjust="spacing" textLength="90" x="732.5" y="70.5352">Regex Parser</text><rect fill="#E2E2F0" height="30.4883" rx="2.5" ry="2.5" style="stroke:#181818;stroke-width:0.5;" width="104" x="725.5" y="599.7227"/><text fill="#000000" font-family="sans-serif" font-size="14" lengthAdjust="spacing" textLength="90" x="732.5" y="620.2578">Regex Parser</text><rect fill="#E2E2F0" height="30.4883" rx="2.5" ry="2.5" style="stroke:#181818;stroke-width:0.5;" width="77" x="839.5" y="50"/><text fill="#000000" font-family="sans-serif" font-size="14" lengthAdjust="spacing" textLength="63" x="846.5" y="70.5352">Database</text><rect fill="#E2E2F0" height="30.4883" rx="2.5" ry="2.5" style="stroke:#181818;stroke-width:0.5;" width="77" x="839.5" y="599.7227"/><text fill="#000000" font-family="sans-serif" font-size="14" lengthAdjust="spacing" textLength="63" x="846.5" y="620.2578">Database</text><polygon fill="#181818" points="339.5,108.7988,349.5,112.7988,339.5,116.7988,343.5,112.7988" style="stroke:#181818;stroke-width:1.0;"/><line style="stroke:#181818;stroke-width:1.0;" x1="38.5" x2="345.5" y1="112.7988" y2="112.7988"/><text fill="#000000" font-family="sans-serif" font-size="13" lengthAdjust="spacing" textLength="182" x="45.5" y="108.0566">Upload Resume (filepath: str)</text><polygon fill="#181818" points="550.5,138.1094,560.5,142.1094,550.5,146.1094,554.5,142.1094" style="stroke:#181818;stroke-width:1.0;"/><line style="stroke:#181818;stroke-width:1.0;" x1="351.5" x2="556.5" y1="142.1094" y2="142.1094"/><text fill="#000000" font-family="sans-serif" font-size="13" lengthAdjust="spacing" textLength="187" x="358.5" y="137.3672">Extract Text (PDF/DOCX/TXT)</text><polygon fill="#181818" points="362.5,167.4199,352.5,171.4199,362.5,175.4199,358.5,171.4199" style="stroke:#181818;stroke-width:1.0;"/><line style="stroke:#181818;stroke-width:1.0;stroke-dasharray:2.0,2.0;" x1="356.5" x2="561.5" y1="171.4199" y2="171.4199"/><text fill="#000000" font-family="sans-serif" font-size="13" lengthAdjust="spacing" textLength="91" x="368.5" y="166.6777">Extracted Text</text><path d="M10,186.4199 L72,186.4199 L72,193.7305 L62,203.7305 L10,203.7305 L10,186.4199 " fill="#EEEEEE" style="stroke:#000000;stroke-width:1.5;"/><rect fill="none" height="397.3027" style="stroke:#000000;stroke-width:1.5;" width="997" x="10" y="186.4199"/><text fill="#000000" font-family="sans-serif" font-size="13" font-weight="bold" lengthAdjust="spacing" textLength="17" x="25" y="199.9883">alt</text><text fill="#000000" font-family="sans-serif" font-size="11" font-weight="bold" lengthAdjust="spacing" textLength="155" x="87" y="199.0547">[Text Extraction Successful]</text><polygon fill="#181818" points="660,221.041,670,225.041,660,229.041,664,225.041" style="stroke:#181818;stroke-width:1.0;"/><line style="stroke:#181818;stroke-width:1.0;" x1="351.5" x2="666" y1="225.041" y2="225.041"/><text fill="#000000" font-family="sans-serif" font-size="13" lengthAdjust="spacing" textLength="253" x="358.5" y="220.2988">Perform Named Entity Recognition (NER)</text><polygon fill="#181818" points="362.5,265.6621,352.5,269.6621,362.5,273.6621,358.5,269.6621" style="stroke:#181818;stroke-width:1.0;"/><line style="stroke:#181818;stroke-width:1.0;stroke-dasharray:2.0,2.0;" x1="356.5" x2="671" y1="269.6621" y2="269.6621"/><text fill="#000000" font-family="sans-serif" font-size="13" lengthAdjust="spacing" textLength="110" x="368.5" y="249.6094">Extracted Entities</text><text fill="#000000" font-family="sans-serif" font-size="13" lengthAdjust="spacing" textLength="263" x="368.5" y="264.9199">(Name, Experience, Education, Skills, etc.)</text><polygon fill="#181818" points="765.5,294.9727,775.5,298.9727,765.5,302.9727,769.5,298.9727" style="stroke:#181818;stroke-width:1.0;"/><line style="stroke:#181818;stroke-width:1.0;" x1="351.5" x2="771.5" y1="298.9727" y2="298.9727"/><text fill="#000000" font-family="sans-serif" font-size="13" lengthAdjust="spacing" textLength="141" x="358.5" y="294.2305">Extracted Contact Info</text><polygon fill="#181818" points="362.5,339.5938,352.5,343.5938,362.5,347.5938,358.5,343.5938" style="stroke:#181818;stroke-width:1.0;"/><line style="stroke:#181818;stroke-width:1.0;stroke-dasharray:2.0,2.0;" x1="356.5" x2="776.5" y1="343.5938" y2="343.5938"/><text fill="#000000" font-family="sans-serif" font-size="13" lengthAdjust="spacing" textLength="145" x="368.5" y="323.541">Extract Contact Details</text><text fill="#000000" font-family="sans-serif" font-size="13" lengthAdjust="spacing" textLength="218" x="368.5" y="338.8516">(Emails, Phone Numbers, LinkedIn)</text><polygon fill="#181818" points="866,368.9043,876,372.9043,866,376.9043,870,372.9043" style="stroke:#181818;stroke-width:1.0;"/><line style="stroke:#181818;stroke-width:1.0;stroke-dasharray:2.0,2.0;" x1="351.5" x2="872" y1="372.9043" y2="372.9043"/><text fill="#000000" font-family="sans-serif" font-size="13" lengthAdjust="spacing" textLength="163" x="358.5" y="368.1621">Store Parsed Resume Data</text><polygon fill="#181818" points="49.5,398.2148,39.5,402.2148,49.5,406.2148,45.5,402.2148" style="stroke:#181818;stroke-width:1.0;"/><line style="stroke:#181818;stroke-width:1.0;" x1="43.5" x2="350.5" y1="402.2148" y2="402.2148"/><text fill="#000000" font-family="sans-serif" font-size="13" lengthAdjust="spacing" textLength="289" x="55.5" y="397.4727">Response with Structured Resume Data (JSON)</text><line style="stroke:#181818;stroke-width:1.0;stroke-dasharray:2.0,2.0;" x1="878" x2="920" y1="431.5254" y2="431.5254"/><line style="stroke:#181818;stroke-width:1.0;stroke-dasharray:2.0,2.0;" x1="920" x2="920" y1="431.5254" y2="444.5254"/><line style="stroke:#181818;stroke-width:1.0;stroke-dasharray:2.0,2.0;" x1="879" x2="920" y1="444.5254" y2="444.5254"/><polygon fill="#181818" points="889,440.5254,879,444.5254,889,448.5254,885,444.5254" style="stroke:#181818;stroke-width:1.0;"/><text fill="#000000" font-family="sans-serif" font-size="13" lengthAdjust="spacing" textLength="110" x="885" y="426.7832">Log Confirmation</text><line style="stroke:#000000;stroke-width:1.0;stroke-dasharray:2.0,2.0;" x1="10" x2="1007" y1="453.5254" y2="453.5254"/><text fill="#000000" font-family="sans-serif" font-size="11" font-weight="bold" lengthAdjust="spacing" textLength="129" x="15" y="464.1602">[Text Extraction Failed]</text><polygon fill="#181818" points="866,484.791,876,488.791,866,492.791,870,488.791" style="stroke:#181818;stroke-width:1.0;"/><line style="stroke:#181818;stroke-width:1.0;stroke-dasharray:2.0,2.0;" x1="351.5" x2="872" y1="488.791" y2="488.791"/><text fill="#000000" font-family="sans-serif" font-size="13" lengthAdjust="spacing" textLength="113" x="358.5" y="484.0488">Logged Failed File</text><polygon fill="#181818" points="49.5,529.4121,39.5,533.4121,49.5,537.4121,45.5,533.4121" style="stroke:#181818;stroke-width:1.0;"/><line style="stroke:#181818;stroke-width:1.0;" x1="43.5" x2="350.5" y1="533.4121" y2="533.4121"/><text fill="#000000" font-family="sans-serif" font-size="13" lengthAdjust="spacing" textLength="137" x="55.5" y="513.3594">Error Response (JSON)</text><text fill="#000000" font-family="sans-serif" font-size="13" lengthAdjust="spacing" textLength="99" x="55.5" y="528.6699">(Failure Reason)</text><line style="stroke:#181818;stroke-width:1.0;stroke-dasharray:2.0,2.0;" x1="878" x2="920" y1="562.7227" y2="562.7227"/><line style="stroke:#181818;stroke-width:1.0;stroke-dasharray:2.0,2.0;" x1="920" x2="920" y1="562.7227" y2="575.7227"/><line style="stroke:#181818;stroke-width:1.0;stroke-dasharray:2.0,2.0;" x1="879" x2="920" y1="575.7227" y2="575.7227"/><polygon fill="#181818" points="889,571.7227,879,575.7227,889,579.7227,885,575.7227" style="stroke:#181818;stroke-width:1.0;"/><text fill="#000000" font-family="sans-serif" font-size="13" lengthAdjust="spacing" textLength="57" x="885" y="557.9805">Log Error</text><!--SRC=[RP9DJyCm38Rl-HKMfquQSEy1YT5E6e9HiI5nu19ITuj8aof9nVZts6aPww27VjZlQp-r8rLq7bu2Uj597xNIdRGHBfunz2r29JsbuBPQNO0C_9pAjdY8K1wYbrmdQJXqZ4pLw_8P7bsD9Wdfwxpd3WzZowH8WQcca56-ou0fNoo4O7Iul66q75uwusGD8tpMQ8ETZFiSGlGpGH9MJW3p7_eKXgmgbjV5qzthzVPrEnCJALp-j1b3M2UJ4DACzZ6XdOLDhnI6qFH605rZR_hd72hqZVCjh6LB9KeRTVmYPkLsLYTlHh9Pil74_ccRF1e3lDcCgymfrw7NQ1M_rxsIN6WEcmzjJ9W3HdKrL3obIVCzhNldREHPh6pZad1OoJd1KLTWbDeaZBBbjpbKUsSHrdtxZfu-7xJzm7fbP-AtCLKh5ZbiQARZ2JkkZDTxIiZRpJdPEHiGFdNSay_tAlP-weBiVlEq7lwnM50FRl7WTipQQD-cWGWqLELyLKiYn_eF7vbtr6F8mfBkVybAx-bW7Fa61Xu7kmYHKZ8u-mzMSWgqjVW6]--></g></svg>