<?xml version="1.0" encoding="us-ascii" standalone="no"?><svg xmlns="http://www.w3.org/2000/svg" xmlns:xlink="http://www.w3.org/1999/xlink" contentStyleType="text/css" height="796.875px" preserveAspectRatio="none" style="width:800px;height:796px;background:#FFFFFF;" version="1.1" viewBox="0 0 800 796" width="800px" zoomAndPan="magnify"><defs/><g><!--cluster PL--><g id="cluster_PL"><rect fill="none" height="187.4531" rx="3.9063" ry="3.9063" style="stroke:#181818;stroke-width:1.5625;" width="601.5625" x="135.9375" y="407.75"/><text fill="#000000" font-family="sans-serif" font-size="21.875" font-weight="bold" lengthAdjust="spacing" textLength="189.0625" x="342.1875" y="432.0237">Processing Layer</text></g><!--entity RP--><g id="elem_RP"><rect fill="#F1F1F1" height="82.7759" rx="3.9063" ry="3.9063" style="stroke:#181818;stroke-width:0.78125;" width="201.5625" x="203.9063" y="474.9375"/><text fill="#000000" font-family="sans-serif" font-size="21.875" lengthAdjust="spacing" textLength="170.3125" x="219.5313" y="511.7112">Resume Parsing</text><text fill="#000000" font-family="sans-serif" font-size="21.875" lengthAdjust="spacing" textLength="59.375" x="219.5313" y="537.4741">&#128196;&#128269;</text></g><!--entity JM--><g id="elem_JM"><rect fill="#F1F1F1" height="82.7759" rx="3.9063" ry="3.9063" style="stroke:#181818;stroke-width:0.78125;" width="239.0625" x="460.1563" y="474.9375"/><text fill="#000000" font-family="sans-serif" font-size="21.875" lengthAdjust="spacing" textLength="139.0625" x="475.7813" y="511.7112">Job Matching</text><text fill="#000000" font-family="sans-serif" font-size="21.875" lengthAdjust="spacing" textLength="207.8125" x="475.7813" y="537.4741">&#129302; BERT + &#128269; Faiss</text></g><!--entity FE--><g id="elem_FE"><rect fill="#F1F1F1" height="82.7759" rx="3.9063" ry="3.9063" style="stroke:#181818;stroke-width:0.78125;" width="245.3125" x="25.7813" y="10.9375"/><text fill="#000000" font-family="sans-serif" font-size="21.875" lengthAdjust="spacing" textLength="160.9375" x="41.4063" y="47.7112">Frontend Layer</text><text fill="#000000" font-family="sans-serif" font-size="21.875" lengthAdjust="spacing" textLength="214.0625" x="41.4063" y="73.4741">&#128421;&#65039; React.js / Next.js</text></g><!--entity APIG--><g id="elem_APIG"><rect fill="#F1F1F1" height="82.7759" rx="3.9063" ry="3.9063" style="stroke:#181818;stroke-width:0.78125;" width="275" x="10.9375" y="214.0313"/><text fill="#000000" font-family="sans-serif" font-size="21.875" lengthAdjust="spacing" textLength="129.6875" x="26.5625" y="250.8049">API Gateway</text><text fill="#000000" font-family="sans-serif" font-size="21.875" lengthAdjust="spacing" textLength="243.75" x="26.5625" y="276.5679">&#128640; FastAPI + &#128736;&#65039; Nginx</text></g><!--entity DB--><g id="elem_DB"><rect fill="#F1F1F1" height="82.7759" rx="3.9063" ry="3.9063" style="stroke:#181818;stroke-width:0.78125;" width="332.8125" x="139.8438" y="706.1406"/><text fill="#000000" font-family="sans-serif" font-size="21.875" lengthAdjust="spacing" textLength="160.9375" x="155.4688" y="742.9143">Database Layer</text><text fill="#000000" font-family="sans-serif" font-size="21.875" lengthAdjust="spacing" textLength="301.5625" x="155.4688" y="768.6772">&#128452;&#65039; MongoDB + &#128194; VectorDB</text></g><!--link FE to APIG--><g id="link_FE_APIG"><path d="M148.4375,94.3594 C148.4375,129.0469 148.4375,169.4063 148.4375,204.0781 " fill="none" id="FE-to-APIG" style="stroke:#181818;stroke-width:1.5625;"/><polygon fill="#181818" points="148.4375,213.4531,154.6875,199.3906,148.4375,205.6406,142.1875,199.3906,148.4375,213.4531" style="stroke:#181818;stroke-width:1.5625;"/><text fill="#000000" font-family="sans-serif" font-size="20.3125" lengthAdjust="spacing" textLength="85.9375" x="150" y="161.7943">API Calls</text></g><!--link APIG to PL--><g id="link_APIG_PL"><path d="M148.4375,297.2656 C148.4375,315.1055 148.4375,337.3369 148.4375,360.718 C148.4375,372.4086 148.4375,384.3865 148.4375,396.2467 C148.4375,399.2117 148.4375,402.1694 148.4375,405.1134 C148.4375,405.8493 148.4375,397.2095 148.4375,397.9437 " fill="none" id="APIG-to-PL" style="stroke:#181818;stroke-width:1.5625;"/><polygon fill="#181818" points="148.4375,407.3187,154.6875,393.2562,148.4375,399.5062,142.1875,393.2562,148.4375,407.3187" style="stroke:#181818;stroke-width:1.5625;"/><text fill="#000000" font-family="sans-serif" font-size="20.3125" lengthAdjust="spacing" textLength="190.625" x="150" y="364.8881">Request Processing</text></g><!--link PL to DB--><g id="link_PL_DB"><path d="M135.8629,525.3896 C135.2234,525.7893 134.5645,526.2035 133.8874,526.6319 C131.1789,528.3455 128.1796,530.2859 124.9663,532.4307 C112.1133,541.0098 95.8379,552.8594 81.0703,566.5469 C51.5352,593.9219 28.0312,628.6484 50,659.2656 C71.625,689.4219 95.5263,705.9486 130.3701,718.9173 " fill="none" id="PL-to-DB" style="stroke:#181818;stroke-width:1.5625;"/><polygon fill="#181818" points="139.1563,722.1875,128.1571,711.4248,131.8345,719.4623,123.7969,723.1397,139.1563,722.1875" style="stroke:#181818;stroke-width:1.5625;"/><text fill="#000000" font-family="sans-serif" font-size="20.3125" lengthAdjust="spacing" textLength="235.9375" x="51.5625" y="653.9037">Data Storage &amp; Retrieval</text></g><!--link RP to DB--><g id="link_RP_DB"><path d="M302.75,558.1094 C301.6406,586.4063 300.6406,625.1563 301.5625,659.2656 C301.9688,674.3438 302.2484,681.4995 303.0765,696.0464 " fill="none" id="RP-to-DB" style="stroke:#181818;stroke-width:1.5625;"/><polygon fill="#181818" points="303.6094,705.4063,309.05,691.0113,303.1653,697.6064,296.5702,691.7217,303.6094,705.4063" style="stroke:#181818;stroke-width:1.5625;"/><text fill="#000000" font-family="sans-serif" font-size="20.3125" lengthAdjust="spacing" textLength="207.8125" x="303.125" y="653.9037">Resume Data Storage</text></g><!--link JM to DB--><g id="link_JM_DB"><path d="M571.2031,557.9844 C562.7344,589.2188 546.7969,631.7656 518.75,659.2656 C499.125,678.5156 483.1251,689.6994 457.8282,701.5901 " fill="none" id="JM-to-DB" style="stroke:#181818;stroke-width:1.5625;"/><polygon fill="#181818" points="449.3438,705.5781,464.7291,705.2523,456.4141,702.2547,459.4117,693.9397,449.3438,705.5781" style="stroke:#181818;stroke-width:1.5625;"/><text fill="#000000" font-family="sans-serif" font-size="20.3125" lengthAdjust="spacing" textLength="246.875" x="541.0469" y="653.9037">Candidate Matching Data</text></g><!--SRC=[PP7DJW8n58NtVOeR5hem-BDmmy94VYC1CXcDApSNvZfKXnRR8X1ZOWnRuWA2YIvmeU_WMyaZs1OmZEoQSy_zUdggRxdeei8EH5qEHyU7ZB5TA2if38a8QZWanHIr38eu8SYa9rTYCPzz_No_G4ZOClit6WwWGGDtoW1gA9V0yKw3CwYWeJuEjv4RGyTxUu8oQkFKFLZCtpySlX5pCV14grSyio0LGQ1aYxJc8jxc_f_vzQ063mnWmnQIxdKi2PMpkWIJqM8-7Njx6AJDLTc4EffMUsNzd46-55xufDEn3Sxryk7LEdjqAOjei8cQjkEb9mxsEd9FhKiHosBU8oVFS6atf2hcFTNA7ahNN93jF473fT1jtjNCLfsDP5zaJvOTvNph1KmIpRomdjeASdRthaVQR1J8hBwss7joFZgSsyin9jYn6qPnkiU4XK7Qk6fmqy-gzRIdW2BYaVtbl_gyd_q2]--></g></svg>