<?xml version="1.0" encoding="us-ascii" standalone="no"?><svg xmlns="http://www.w3.org/2000/svg" xmlns:xlink="http://www.w3.org/1999/xlink" contentStyleType="text/css" height="796.875px" preserveAspectRatio="none" style="width:779px;height:796px;background:#FFFFFF;" version="1.1" viewBox="0 0 779 796" width="779.6875px" zoomAndPan="magnify"><defs/><g><!--cluster PL--><g id="cluster_PL"><rect fill="none" height="187.4531" rx="3.9063" ry="3.9063" style="stroke:#181818;stroke-width:1.5625;" width="571.875" x="118.9531" y="407.75"/><text fill="#000000" font-family="sans-serif" font-size="21.875" font-weight="bold" lengthAdjust="spacing" textLength="189.0625" x="310.3594" y="432.0237">Processing Layer</text></g><!--entity RP--><g id="elem_RP"><rect fill="#F1F1F1" height="82.7759" rx="3.9063" ry="3.9063" style="stroke:#181818;stroke-width:0.78125;" width="201.5625" x="186.9219" y="474.9375"/><text fill="#000000" font-family="sans-serif" font-size="21.875" lengthAdjust="spacing" textLength="170.3125" x="202.5469" y="511.7112">Resume Parsing</text><text fill="#000000" font-family="sans-serif" font-size="21.875" lengthAdjust="spacing" textLength="6.25" x="202.5469" y="537.4741">&#160;</text></g><!--entity JM--><g id="elem_JM"><rect fill="#F1F1F1" height="82.7759" rx="3.9063" ry="3.9063" style="stroke:#181818;stroke-width:0.78125;" width="209.375" x="443.9531" y="474.9375"/><text fill="#000000" font-family="sans-serif" font-size="21.875" lengthAdjust="spacing" textLength="139.0625" x="459.5781" y="511.7112">Job Matching</text><text fill="#000000" font-family="sans-serif" font-size="21.875" lengthAdjust="spacing" textLength="171.875" x="465.8281" y="537.4741">BERT + &#128269; Faiss</text></g><!--entity FE--><g id="elem_FE"><rect fill="#F1F1F1" height="82.7759" rx="3.9063" ry="3.9063" style="stroke:#181818;stroke-width:0.78125;" width="232.8125" x="15.0469" y="10.9375"/><text fill="#000000" font-family="sans-serif" font-size="21.875" lengthAdjust="spacing" textLength="160.9375" x="30.6719" y="47.7112">Frontend Layer</text><text fill="#000000" font-family="sans-serif" font-size="21.875" lengthAdjust="spacing" textLength="195.3125" x="36.9219" y="73.4741">JavaScript/React.js</text></g><!--entity APIG--><g id="elem_APIG"><rect fill="#F1F1F1" height="82.7759" rx="3.9063" ry="3.9063" style="stroke:#181818;stroke-width:0.78125;" width="215.625" x="23.6406" y="214.0313"/><text fill="#000000" font-family="sans-serif" font-size="21.875" lengthAdjust="spacing" textLength="129.6875" x="39.2656" y="250.8049">API Gateway</text><text fill="#000000" font-family="sans-serif" font-size="21.875" lengthAdjust="spacing" textLength="178.125" x="45.5156" y="276.5679">FastAPI +  Nginx</text></g><!--entity DB--><g id="elem_DB"><rect fill="#F1F1F1" height="82.7759" rx="3.9063" ry="3.9063" style="stroke:#181818;stroke-width:0.78125;" width="273.4375" x="150.9844" y="706.1406"/><text fill="#000000" font-family="sans-serif" font-size="21.875" lengthAdjust="spacing" textLength="160.9375" x="166.6094" y="742.9143">Database Layer</text><text fill="#000000" font-family="sans-serif" font-size="21.875" lengthAdjust="spacing" textLength="235.9375" x="172.8594" y="768.6772">MongoDB +  VectorDB</text></g><!--link FE to APIG--><g id="link_FE_APIG"><path d="M131.4531,94.3594 C131.4531,129.0469 131.4531,169.4063 131.4531,204.0781 " fill="none" id="FE-to-APIG" style="stroke:#181818;stroke-width:1.5625;"/><polygon fill="#181818" points="131.4531,213.4531,137.7031,199.3906,131.4531,205.6406,125.2031,199.3906,131.4531,213.4531" style="stroke:#181818;stroke-width:1.5625;"/><text fill="#000000" font-family="sans-serif" font-size="20.3125" lengthAdjust="spacing" textLength="85.9375" x="133.0156" y="161.7943">API Calls</text></g><!--link APIG to PL--><g id="link_APIG_PL"><path d="M131.4531,297.2656 C131.4531,315.1055 131.4531,337.3369 131.4531,360.718 C131.4531,372.4086 131.4531,384.3865 131.4531,396.2467 C131.4531,399.2117 131.4531,402.1694 131.4531,405.1134 C131.4531,405.8493 131.4531,397.2095 131.4531,397.9437 " fill="none" id="APIG-to-PL" style="stroke:#181818;stroke-width:1.5625;"/><polygon fill="#181818" points="131.4531,407.3187,137.7031,393.2562,131.4531,399.5062,125.2031,393.2562,131.4531,407.3187" style="stroke:#181818;stroke-width:1.5625;"/><text fill="#000000" font-family="sans-serif" font-size="20.3125" lengthAdjust="spacing" textLength="190.625" x="133.0156" y="364.8881">Request Processing</text></g><!--link PL to DB--><g id="link_PL_DB"><path d="M118.7178,525.36 C118.07,525.7583 117.4026,526.1711 116.7168,526.598 C113.9736,528.3057 110.9355,530.2397 107.6807,532.3779 C94.6611,540.9307 78.1719,552.75 63.1992,566.418 C33.2539,593.7539 9.375,628.4844 31.4531,659.2656 C59.2344,698 96.2178,717.2595 141.6553,729.2751 " fill="none" id="PL-to-DB" style="stroke:#181818;stroke-width:1.5625;"/><polygon fill="#181818" points="150.7188,731.6719,138.7214,722.0344,143.1659,729.6746,135.5257,734.119,150.7188,731.6719" style="stroke:#181818;stroke-width:1.5625;"/><text fill="#000000" font-family="sans-serif" font-size="20.3125" lengthAdjust="spacing" textLength="235.9375" x="33.0156" y="653.9037">Data Storage &amp; Retrieval</text></g><!--link RP to DB--><g id="link_RP_DB"><path d="M285.0781,558.1094 C283.5625,586.3906 282.0938,625.1406 283.0156,659.2656 C283.4219,674.3438 283.7015,681.4995 284.5297,696.0464 " fill="none" id="RP-to-DB" style="stroke:#181818;stroke-width:1.5625;"/><polygon fill="#181818" points="285.0625,705.4063,290.5031,691.0113,284.6185,697.6064,278.0233,691.7217,285.0625,705.4063" style="stroke:#181818;stroke-width:1.5625;"/><text fill="#000000" font-family="sans-serif" font-size="20.3125" lengthAdjust="spacing" textLength="207.8125" x="284.5781" y="653.9037">Resume Data Storage</text></g><!--link JM to DB--><g id="link_JM_DB"><path d="M544.0156,557.875 C538.4688,589.0313 526.3906,631.5313 500.2031,659.2656 C479.5469,681.1406 461.1516,693.8281 433.4172,706.2344 " fill="none" id="JM-to-DB" style="stroke:#181818;stroke-width:1.5625;"/><polygon fill="#181818" points="424.8594,710.0625,440.2482,710.0255,431.9909,706.8724,435.144,698.6151,424.8594,710.0625" style="stroke:#181818;stroke-width:1.5625;"/><text fill="#000000" font-family="sans-serif" font-size="20.3125" lengthAdjust="spacing" textLength="246.875" x="520.5313" y="653.9037">Candidate Matching Data</text></g><!--SRC=[PP4zJiD048NxFSKe1HI8lu8c1HBv5LQCB0THfPdOWxFWx9gTJKA4E08TFLVa28mt1DcaVU-RjpDl-LcR2Xqk8QyqN5vTAAMEOUIiyMHocE2Md7AKUJH5IT1fEpC34QvncZbT-VEKCFDdJzm1P1WDeKwwIMvXZ9usk3qCQvYID4BsjN82S5TeynfYH1Y7eBvr18cp6J5hKno6_VV2U3A1DmNGm5BYrLAIqDNep0GiJTfGPESGeyyM0O7UCBsNjRw_FZzaIysx2wDOlTUR3T3Z79aELsex4XHRKzX1hpxnGJ3h1hqG9L98eaTj258gqMjhUA4hLbBaQMutvlHwLqOtTDh7icGLXBqhjtPbzcL5x1jDAT7tYBpJ3Vl2L1x7Wk189hpJjCPIfKaR_AsgoQieRZDzDBdEvG__-Wgy-W40]--></g></svg>