<?xml version="1.0" encoding="us-ascii" standalone="no"?><svg xmlns="http://www.w3.org/2000/svg" xmlns:xlink="http://www.w3.org/1999/xlink" contentStyleType="text/css" height="622px" preserveAspectRatio="none" style="width:1512px;height:622px;background:#FFFFFF;" version="1.1" viewBox="0 0 1512 622" width="1512px" zoomAndPan="magnify"><defs/><g><line style="stroke:#181818;stroke-width:0.5;stroke-dasharray:5.0,5.0;" x1="23" x2="23" y1="81.4883" y2="541.1465"/><line style="stroke:#181818;stroke-width:0.5;stroke-dasharray:5.0,5.0;" x1="224" x2="224" y1="81.4883" y2="541.1465"/><line style="stroke:#181818;stroke-width:0.5;stroke-dasharray:5.0,5.0;" x1="421" x2="421" y1="81.4883" y2="541.1465"/><line style="stroke:#181818;stroke-width:0.5;stroke-dasharray:5.0,5.0;" x1="606" x2="606" y1="81.4883" y2="541.1465"/><line style="stroke:#181818;stroke-width:0.5;stroke-dasharray:5.0,5.0;" x1="814.5" x2="814.5" y1="81.4883" y2="541.1465"/><line style="stroke:#181818;stroke-width:0.5;stroke-dasharray:5.0,5.0;" x1="988.5" x2="988.5" y1="81.4883" y2="541.1465"/><line style="stroke:#181818;stroke-width:0.5;stroke-dasharray:5.0,5.0;" x1="1254" x2="1254" y1="81.4883" y2="541.1465"/><line style="stroke:#181818;stroke-width:0.5;stroke-dasharray:5.0,5.0;" x1="1380.5" x2="1380.5" y1="81.4883" y2="541.1465"/><line style="stroke:#181818;stroke-width:0.5;stroke-dasharray:5.0,5.0;" x1="1476.5" x2="1476.5" y1="81.4883" y2="541.1465"/><text fill="#000000" font-family="sans-serif" font-size="14" lengthAdjust="spacing" textLength="31" x="5" y="78.5352">User</text><ellipse cx="23.5" cy="13.5" fill="#E2E2F0" rx="8" ry="8" style="stroke:#181818;stroke-width:0.5;"/><path d="M23.5,21.5 L23.5,48.5 M10.5,29.5 L36.5,29.5 M23.5,48.5 L10.5,63.5 M23.5,48.5 L36.5,63.5 " fill="none" style="stroke:#181818;stroke-width:0.5;"/><text fill="#000000" font-family="sans-serif" font-size="14" lengthAdjust="spacing" textLength="31" x="5" y="553.6816">User</text><ellipse cx="23.5" cy="565.1348" fill="#E2E2F0" rx="8" ry="8" style="stroke:#181818;stroke-width:0.5;"/><path d="M23.5,573.1348 L23.5,600.1348 M10.5,581.1348 L36.5,581.1348 M23.5,600.1348 L10.5,615.1348 M23.5,600.1348 L36.5,615.1348 " fill="none" style="stroke:#181818;stroke-width:0.5;"/><rect fill="#E2E2F0" height="30.4883" rx="2.5" ry="2.5" style="stroke:#181818;stroke-width:0.5;" width="117" x="166" y="50"/><text fill="#000000" font-family="sans-serif" font-size="14" lengthAdjust="spacing" textLength="103" x="173" y="70.5352">Frontend Layer</text><rect fill="#E2E2F0" height="30.4883" rx="2.5" ry="2.5" style="stroke:#181818;stroke-width:0.5;" width="117" x="166" y="540.1465"/><text fill="#000000" font-family="sans-serif" font-size="14" lengthAdjust="spacing" textLength="103" x="173" y="560.6816">Frontend Layer</text><rect fill="#E2E2F0" height="30.4883" rx="2.5" ry="2.5" style="stroke:#181818;stroke-width:0.5;" width="221" x="311" y="50"/><text fill="#000000" font-family="sans-serif" font-size="14" lengthAdjust="spacing" textLength="207" x="318" y="70.5352">API Gateway (FastAPI + Nginx)</text><rect fill="#E2E2F0" height="30.4883" rx="2.5" ry="2.5" style="stroke:#181818;stroke-width:0.5;" width="221" x="311" y="540.1465"/><text fill="#000000" font-family="sans-serif" font-size="14" lengthAdjust="spacing" textLength="207" x="318" y="560.6816">API Gateway (FastAPI + Nginx)</text><rect fill="#E2E2F0" height="30.4883" rx="2.5" ry="2.5" style="stroke:#181818;stroke-width:0.5;" width="128" x="542" y="50"/><text fill="#000000" font-family="sans-serif" font-size="14" lengthAdjust="spacing" textLength="114" x="549" y="70.5352">Processing Layer</text><rect fill="#E2E2F0" height="30.4883" rx="2.5" ry="2.5" style="stroke:#181818;stroke-width:0.5;" width="128" x="542" y="540.1465"/><text fill="#000000" font-family="sans-serif" font-size="14" lengthAdjust="spacing" textLength="114" x="549" y="560.6816">Processing Layer</text><rect fill="#E2E2F0" height="30.4883" rx="2.5" ry="2.5" style="stroke:#181818;stroke-width:0.5;" width="123" x="753.5" y="50"/><text fill="#000000" font-family="sans-serif" font-size="14" lengthAdjust="spacing" textLength="109" x="760.5" y="70.5352">Resume Parsing</text><rect fill="#E2E2F0" height="30.4883" rx="2.5" ry="2.5" style="stroke:#181818;stroke-width:0.5;" width="123" x="753.5" y="540.1465"/><text fill="#000000" font-family="sans-serif" font-size="14" lengthAdjust="spacing" textLength="109" x="760.5" y="560.6816">Resume Parsing</text><rect fill="#E2E2F0" height="30.4883" rx="2.5" ry="2.5" style="stroke:#181818;stroke-width:0.5;" width="204" x="886.5" y="50"/><text fill="#000000" font-family="sans-serif" font-size="14" lengthAdjust="spacing" textLength="190" x="893.5" y="70.5352">Job Matching (BERT + Faiss)</text><rect fill="#E2E2F0" height="30.4883" rx="2.5" ry="2.5" style="stroke:#181818;stroke-width:0.5;" width="204" x="886.5" y="540.1465"/><text fill="#000000" font-family="sans-serif" font-size="14" lengthAdjust="spacing" textLength="190" x="893.5" y="560.6816">Job Matching (BERT + Faiss)</text><text fill="#000000" font-family="sans-serif" font-size="14" lengthAdjust="spacing" textLength="63" x="1220" y="78.5352">Database</text><path d="M1236.5,29 C1236.5,19 1254.5,19 1254.5,19 C1254.5,19 1272.5,19 1272.5,29 L1272.5,55 C1272.5,65 1254.5,65 1254.5,65 C1254.5,65 1236.5,65 1236.5,55 L1236.5,29 " fill="#E2E2F0" style="stroke:#181818;stroke-width:1.5;"/><path d="M1236.5,29 C1236.5,39 1254.5,39 1254.5,39 C1254.5,39 1272.5,39 1272.5,29 " fill="none" style="stroke:#181818;stroke-width:1.5;"/><text fill="#000000" font-family="sans-serif" font-size="14" lengthAdjust="spacing" textLength="63" x="1220" y="553.6816">Database</text><path d="M1236.5,566.6348 C1236.5,556.6348 1254.5,556.6348 1254.5,556.6348 C1254.5,556.6348 1272.5,556.6348 1272.5,566.6348 L1272.5,592.6348 C1272.5,602.6348 1254.5,602.6348 1254.5,602.6348 C1254.5,602.6348 1236.5,602.6348 1236.5,592.6348 L1236.5,566.6348 " fill="#E2E2F0" style="stroke:#181818;stroke-width:1.5;"/><path d="M1236.5,566.6348 C1236.5,576.6348 1254.5,576.6348 1254.5,576.6348 C1254.5,576.6348 1272.5,576.6348 1272.5,566.6348 " fill="none" style="stroke:#181818;stroke-width:1.5;"/><text fill="#000000" font-family="sans-serif" font-size="14" lengthAdjust="spacing" textLength="96" x="1329.5" y="78.5352">Resume Entity</text><ellipse cx="1380.5" cy="49" fill="#E2E2F0" rx="12" ry="12" style="stroke:#181818;stroke-width:0.5;"/><line style="stroke:#181818;stroke-width:0.5;" x1="1368.5" x2="1392.5" y1="63" y2="63"/><text fill="#000000" font-family="sans-serif" font-size="14" lengthAdjust="spacing" textLength="96" x="1329.5" y="553.6816">Resume Entity</text><ellipse cx="1380.5" cy="572.6348" fill="#E2E2F0" rx="12" ry="12" style="stroke:#181818;stroke-width:0.5;"/><line style="stroke:#181818;stroke-width:0.5;" x1="1368.5" x2="1392.5" y1="586.6348" y2="586.6348"/><text fill="#000000" font-family="sans-serif" font-size="14" lengthAdjust="spacing" textLength="64" x="1441.5" y="78.5352">Job Entity</text><ellipse cx="1476.5" cy="49" fill="#E2E2F0" rx="12" ry="12" style="stroke:#181818;stroke-width:0.5;"/><line style="stroke:#181818;stroke-width:0.5;" x1="1464.5" x2="1488.5" y1="63" y2="63"/><text fill="#000000" font-family="sans-serif" font-size="14" lengthAdjust="spacing" textLength="64" x="1441.5" y="553.6816">Job Entity</text><ellipse cx="1476.5" cy="572.6348" fill="#E2E2F0" rx="12" ry="12" style="stroke:#181818;stroke-width:0.5;"/><line style="stroke:#181818;stroke-width:0.5;" x1="1464.5" x2="1488.5" y1="586.6348" y2="586.6348"/><polygon fill="#181818" points="212.5,108.7988,222.5,112.7988,212.5,116.7988,216.5,112.7988" style="stroke:#181818;stroke-width:1.0;"/><line style="stroke:#181818;stroke-width:1.0;" x1="23.5" x2="218.5" y1="112.7988" y2="112.7988"/><text fill="#000000" font-family="sans-serif" font-size="13" lengthAdjust="spacing" textLength="97" x="30.5" y="108.0566">Upload Resume</text><polygon fill="#181818" points="409.5,138.1094,419.5,142.1094,409.5,146.1094,413.5,142.1094" style="stroke:#181818;stroke-width:1.0;"/><line style="stroke:#181818;stroke-width:1.0;" x1="224.5" x2="415.5" y1="142.1094" y2="142.1094"/><text fill="#000000" font-family="sans-serif" font-size="13" lengthAdjust="spacing" textLength="165" x="231.5" y="137.3672">API Call with Resume Data</text><polygon fill="#181818" points="34.5,167.4199,24.5,171.4199,34.5,175.4199,30.5,171.4199" style="stroke:#181818;stroke-width:1.0;"/><line style="stroke:#181818;stroke-width:1.0;stroke-dasharray:2.0,2.0;" x1="28.5" x2="223.5" y1="171.4199" y2="171.4199"/><text fill="#000000" font-family="sans-serif" font-size="13" lengthAdjust="spacing" textLength="132" x="40.5" y="166.6777">Show Loading Screen</text><polygon fill="#181818" points="594,196.7305,604,200.7305,594,204.7305,598,200.7305" style="stroke:#181818;stroke-width:1.0;"/><line style="stroke:#181818;stroke-width:1.0;" x1="421.5" x2="600" y1="200.7305" y2="200.7305"/><text fill="#000000" font-family="sans-serif" font-size="13" lengthAdjust="spacing" textLength="104" x="428.5" y="195.9883">Forward Request</text><line style="stroke:#181818;stroke-width:1.0;" x1="813" x2="803" y1="230.041" y2="226.041"/><line style="stroke:#181818;stroke-width:1.0;" x1="813" x2="803" y1="230.041" y2="234.041"/><line style="stroke:#181818;stroke-width:1.0;" x1="606" x2="814" y1="230.041" y2="230.041"/><text fill="#000000" font-family="sans-serif" font-size="13" lengthAdjust="spacing" textLength="185" x="613" y="225.2988">Extract structured data (Sync)</text><line style="stroke:#181818;stroke-width:1.0;" x1="1378.5" x2="1368.5" y1="259.3516" y2="255.3516"/><line style="stroke:#181818;stroke-width:1.0;" x1="1378.5" x2="1368.5" y1="259.3516" y2="263.3516"/><line style="stroke:#181818;stroke-width:1.0;" x1="815" x2="1379.5" y1="259.3516" y2="259.3516"/><text fill="#000000" font-family="sans-serif" font-size="13" lengthAdjust="spacing" textLength="159" x="822" y="254.6094">Store Resume Data (Sync)</text><line style="stroke:#181818;stroke-width:1.0;" x1="1255.5" x2="1265.5" y1="288.6621" y2="284.6621"/><line style="stroke:#181818;stroke-width:1.0;" x1="1255.5" x2="1265.5" y1="288.6621" y2="292.6621"/><line style="stroke:#181818;stroke-width:1.0;" x1="1254.5" x2="1379.5" y1="288.6621" y2="288.6621"/><text fill="#000000" font-family="sans-serif" font-size="13" lengthAdjust="spacing" textLength="102" x="1271.5" y="283.9199">Save Data (Sync)</text><line style="stroke:#181818;stroke-width:1.0;" x1="986.5" x2="976.5" y1="317.9727" y2="313.9727"/><line style="stroke:#181818;stroke-width:1.0;" x1="986.5" x2="976.5" y1="317.9727" y2="321.9727"/><line style="stroke:#181818;stroke-width:1.0;" x1="606" x2="987.5" y1="317.9727" y2="317.9727"/><text fill="#000000" font-family="sans-serif" font-size="13" lengthAdjust="spacing" textLength="230" x="613" y="313.2305">Generate Resume Embeddings (Sync)</text><line style="stroke:#181818;stroke-width:1.0;" x1="1474.5" x2="1464.5" y1="347.2832" y2="343.2832"/><line style="stroke:#181818;stroke-width:1.0;" x1="1474.5" x2="1464.5" y1="347.2832" y2="351.2832"/><line style="stroke:#181818;stroke-width:1.0;" x1="988.5" x2="1475.5" y1="347.2832" y2="347.2832"/><text fill="#000000" font-family="sans-serif" font-size="13" lengthAdjust="spacing" textLength="148" x="995.5" y="342.541">Retrieve Job Data (Sync)</text><line style="stroke:#181818;stroke-width:1.0;" x1="1255.5" x2="1265.5" y1="376.5938" y2="372.5938"/><line style="stroke:#181818;stroke-width:1.0;" x1="1255.5" x2="1265.5" y1="376.5938" y2="380.5938"/><line style="stroke:#181818;stroke-width:1.0;" x1="1254.5" x2="1475.5" y1="376.5938" y2="376.5938"/><text fill="#000000" font-family="sans-serif" font-size="13" lengthAdjust="spacing" textLength="156" x="1271.5" y="371.8516">Query Job Listings (Sync)</text><line style="stroke:#181818;stroke-width:1.0;" x1="1252.5" x2="1242.5" y1="405.9043" y2="401.9043"/><line style="stroke:#181818;stroke-width:1.0;" x1="1252.5" x2="1242.5" y1="405.9043" y2="409.9043"/><line style="stroke:#181818;stroke-width:1.0;" x1="988.5" x2="1253.5" y1="405.9043" y2="405.9043"/><text fill="#000000" font-family="sans-serif" font-size="13" lengthAdjust="spacing" textLength="242" x="995.5" y="401.1621">Perform Vector Similarity Search (Sync)</text><line style="stroke:#181818;stroke-width:1.0;" x1="989.5" x2="999.5" y1="435.2148" y2="431.2148"/><line style="stroke:#181818;stroke-width:1.0;" x1="989.5" x2="999.5" y1="435.2148" y2="439.2148"/><line style="stroke:#181818;stroke-width:1.0;" x1="988.5" x2="1253.5" y1="435.2148" y2="435.2148"/><text fill="#000000" font-family="sans-serif" font-size="13" lengthAdjust="spacing" textLength="184" x="1005.5" y="430.4727">Retrieve Matching Jobs (Sync)</text><line style="stroke:#181818;stroke-width:1.0;" x1="422.5" x2="432.5" y1="464.5254" y2="460.5254"/><line style="stroke:#181818;stroke-width:1.0;" x1="422.5" x2="432.5" y1="464.5254" y2="468.5254"/><line style="stroke:#181818;stroke-width:1.0;stroke-dasharray:2.0,2.0;" x1="421.5" x2="987.5" y1="464.5254" y2="464.5254"/><text fill="#000000" font-family="sans-serif" font-size="13" lengthAdjust="spacing" textLength="177" x="438.5" y="459.7832">Return Best Matches (Async)</text><line style="stroke:#181818;stroke-width:1.0;" x1="225.5" x2="235.5" y1="493.8359" y2="489.8359"/><line style="stroke:#181818;stroke-width:1.0;" x1="225.5" x2="235.5" y1="493.8359" y2="497.8359"/><line style="stroke:#181818;stroke-width:1.0;stroke-dasharray:2.0,2.0;" x1="224.5" x2="420.5" y1="493.8359" y2="493.8359"/><text fill="#000000" font-family="sans-serif" font-size="13" lengthAdjust="spacing" textLength="173" x="241.5" y="489.0938">Send Matching Jobs (Async)</text><line style="stroke:#181818;stroke-width:1.0;" x1="24.5" x2="34.5" y1="523.1465" y2="519.1465"/><line style="stroke:#181818;stroke-width:1.0;" x1="24.5" x2="34.5" y1="523.1465" y2="527.1465"/><line style="stroke:#181818;stroke-width:1.0;stroke-dasharray:2.0,2.0;" x1="23.5" x2="223.5" y1="523.1465" y2="523.1465"/><text fill="#000000" font-family="sans-serif" font-size="13" lengthAdjust="spacing" textLength="177" x="40.5" y="518.4043">Display Job Matches (Async)</text><!--SRC=[VLJ1Sfj03Btp5PfSOaydFy31CqbZPzfnEgvfUfT1Djk1XQuME_xxQXSM5YVJ6uZtf2VfYNl8w6z7EYSe59uCrd1i31ZYhYPeJPCJiz8dG5t0d-O0DTgyT06-igKwIJ2tGdXZCacBngfSjQWjt6rCeoq9QujNCdU0324q1pxkli4BMhhW5HORPEi2N-37IUdtfUT9O03CcRj9tbHa2lhOdB7l-zgXSG2FxqD3P8x-Bls-XduNJ-lzBz6rGSNSwvBluNEI56ZnW4nmzpmyUKnuIKXRPQ-ZXBL_ZHJqWH7cQaSOUHq0oRqVDdHjrM31W65PPuLWIu9ZcBA7FQp6iQVmvZb3mMJSa62c4QVk6RvYLS55sN80-puYneDmNFuKihAvm5RIkY5bkI7IJcEyLN7K1OreDSvhRC4siRKglwT9WTDpiyKKDdqEaUDJk1A3ihPV7T2xDM961hQcosrdg02t56zT5fCIWxB9JMOfjffx88Lrd-b3eaLsrVaocQ4ZVhyWcOYh5SzjJknXdXVC8Hmypx7Ityn-XgnHT9OUt1MEVHsLbhaUt53zPH9_sc3ar1HUI9EHKGU9w_f0XLiVX-8HFD13S_j1XrSN2nunDvtzxCXSFNghsFwloiJPaH7FrF2R_CybKxMgqBZS6Q79ov0XC3xsECeSAyXdZeRxoF9KYf-RplcIsqPBdcFLNEQwNERuE2HnPpGykOc_zXE7XK-sd5dOyQR3ozpHt4WPID5DhS9DFIjkvIec1qH5_W40]--></g></svg>