<?xml version="1.0" encoding="us-ascii" standalone="no"?><svg xmlns="http://www.w3.org/2000/svg" xmlns:xlink="http://www.w3.org/1999/xlink" contentStyleType="text/css" height="713px" preserveAspectRatio="none" style="width:1193px;height:713px;background:#FFFFFF;" version="1.1" viewBox="0 0 1193 713" width="1193px" zoomAndPan="magnify"><defs/><g><!--cluster User Device--><g id="cluster_User Device"><polygon fill="none" points="97,604.46,107,594.46,271,594.46,271,686.95,261,696.95,97,696.95,97,604.46" style="stroke:#181818;stroke-width:1.0;"/><line style="stroke:#181818;stroke-width:1.0;" x1="261" x2="271" y1="604.46" y2="594.46"/><line style="stroke:#181818;stroke-width:1.0;" x1="97" x2="261" y1="604.46" y2="604.46"/><line style="stroke:#181818;stroke-width:1.0;" x1="261" x2="261" y1="604.46" y2="696.95"/><text fill="#000000" font-family="sans-serif" font-size="14" font-weight="bold" lengthAdjust="spacing" textLength="84" x="138" y="620.9952">User Device</text></g><!--cluster Cloud Server--><g id="cluster_Cloud Server"><polygon fill="none" points="16,16,26,6,668,6,668,519.46,658,529.46,16,529.46,16,16" style="stroke:#181818;stroke-width:1.0;"/><line style="stroke:#181818;stroke-width:1.0;" x1="658" x2="668" y1="16" y2="6"/><line style="stroke:#181818;stroke-width:1.0;" x1="16" x2="658" y1="16" y2="16"/><line style="stroke:#181818;stroke-width:1.0;" x1="658" x2="658" y1="16" y2="529.46"/><text fill="#000000" font-family="sans-serif" font-size="14" font-weight="bold" lengthAdjust="spacing" textLength="91" x="292.5" y="32.5352">Cloud Server</text></g><!--cluster API Gateway Server--><g id="cluster_API Gateway Server"><polygon fill="none" points="44,412.97,54,402.97,324,402.97,324,495.46,314,505.46,44,505.46,44,412.97" style="stroke:#181818;stroke-width:1.0;"/><line style="stroke:#181818;stroke-width:1.0;" x1="314" x2="324" y1="412.97" y2="402.97"/><line style="stroke:#181818;stroke-width:1.0;" x1="44" x2="314" y1="412.97" y2="412.97"/><line style="stroke:#181818;stroke-width:1.0;" x1="314" x2="314" y1="412.97" y2="505.46"/><text fill="#000000" font-family="sans-serif" font-size="14" font-weight="bold" lengthAdjust="spacing" textLength="138" x="111" y="429.5052">API Gateway Server</text></g><!--cluster Processing Server--><g id="cluster_Processing Server"><polygon fill="none" points="199,64,209,54,644,54,644,269.97,634,279.97,199,279.97,199,64" style="stroke:#181818;stroke-width:1.0;"/><line style="stroke:#181818;stroke-width:1.0;" x1="634" x2="644" y1="64" y2="54"/><line style="stroke:#181818;stroke-width:1.0;" x1="199" x2="634" y1="64" y2="64"/><line style="stroke:#181818;stroke-width:1.0;" x1="634" x2="634" y1="64" y2="279.97"/><text fill="#000000" font-family="sans-serif" font-size="14" font-weight="bold" lengthAdjust="spacing" textLength="127" x="354" y="80.5352">Processing Server</text></g><!--cluster Database Server--><g id="cluster_Database Server"><polygon fill="none" points="692,338.97,702,328.97,1098,328.97,1098,535.46,1088,545.46,692,545.46,692,338.97" style="stroke:#181818;stroke-width:1.0;"/><line style="stroke:#181818;stroke-width:1.0;" x1="1088" x2="1098" y1="338.97" y2="328.97"/><line style="stroke:#181818;stroke-width:1.0;" x1="692" x2="1088" y1="338.97" y2="338.97"/><line style="stroke:#181818;stroke-width:1.0;" x1="1088" x2="1088" y1="338.97" y2="545.46"/><text fill="#000000" font-family="sans-serif" font-size="14" font-weight="bold" lengthAdjust="spacing" textLength="115" x="833.5" y="355.5052">Database Server</text></g><!--cluster Database--><g id="cluster_Database"><path d="M724,394.97 C724,384.97 895,384.97 895,384.97 C895,384.97 1066,384.97 1066,394.97 L1066,503.46 C1066,513.46 895,513.46 895,513.46 C895,513.46 724,513.46 724,503.46 L724,394.97 " fill="none" style="stroke:#181818;stroke-width:1.0;"/><path d="M724,394.97 C724,404.97 895,404.97 895,404.97 C895,404.97 1066,404.97 1066,394.97 " fill="none" style="stroke:#181818;stroke-width:1.0;"/><text fill="#000000" font-family="sans-serif" font-size="14" font-weight="bold" lengthAdjust="spacing" textLength="66" x="862" y="420.5052">Database</text></g><!--entity Frontend Layer--><g id="elem_Frontend Layer"><rect fill="#F1F1F1" height="46.4883" rx="2.5" ry="2.5" style="stroke:#181818;stroke-width:0.5;" width="143" x="112.5" y="634.46"/><rect fill="#F1F1F1" height="10" style="stroke:#181818;stroke-width:0.5;" width="15" x="235.5" y="639.46"/><rect fill="#F1F1F1" height="2" style="stroke:#181818;stroke-width:0.5;" width="4" x="233.5" y="641.46"/><rect fill="#F1F1F1" height="2" style="stroke:#181818;stroke-width:0.5;" width="4" x="233.5" y="645.46"/><text fill="#000000" font-family="sans-serif" font-size="14" lengthAdjust="spacing" textLength="103" x="127.5" y="667.9952">Frontend Layer</text></g><!--entity API Gateway (FastAPI + Nginx)--><g id="elem_API Gateway (FastAPI + Nginx)"><rect fill="#F1F1F1" height="46.4883" rx="2.5" ry="2.5" style="stroke:#181818;stroke-width:0.5;" width="247" x="60.5" y="442.97"/><rect fill="#F1F1F1" height="10" style="stroke:#181818;stroke-width:0.5;" width="15" x="287.5" y="447.97"/><rect fill="#F1F1F1" height="2" style="stroke:#181818;stroke-width:0.5;" width="4" x="285.5" y="449.97"/><rect fill="#F1F1F1" height="2" style="stroke:#181818;stroke-width:0.5;" width="4" x="285.5" y="453.97"/><text fill="#000000" font-family="sans-serif" font-size="14" lengthAdjust="spacing" textLength="207" x="75.5" y="476.5052">API Gateway (FastAPI + Nginx)</text></g><!--entity Processing Layer--><g id="elem_Processing Layer"><rect fill="#F1F1F1" height="46.4883" rx="2.5" ry="2.5" style="stroke:#181818;stroke-width:0.5;" width="154" x="215" y="94"/><rect fill="#F1F1F1" height="10" style="stroke:#181818;stroke-width:0.5;" width="15" x="349" y="99"/><rect fill="#F1F1F1" height="2" style="stroke:#181818;stroke-width:0.5;" width="4" x="347" y="101"/><rect fill="#F1F1F1" height="2" style="stroke:#181818;stroke-width:0.5;" width="4" x="347" y="105"/><text fill="#000000" font-family="sans-serif" font-size="14" lengthAdjust="spacing" textLength="114" x="230" y="127.5352">Processing Layer</text></g><!--entity Resume Parsing--><g id="elem_Resume Parsing"><rect fill="#F1F1F1" height="46.4883" rx="2.5" ry="2.5" style="stroke:#181818;stroke-width:0.5;" width="149" x="214.5" y="217.49"/><rect fill="#F1F1F1" height="10" style="stroke:#181818;stroke-width:0.5;" width="15" x="343.5" y="222.49"/><rect fill="#F1F1F1" height="2" style="stroke:#181818;stroke-width:0.5;" width="4" x="341.5" y="224.49"/><rect fill="#F1F1F1" height="2" style="stroke:#181818;stroke-width:0.5;" width="4" x="341.5" y="228.49"/><text fill="#000000" font-family="sans-serif" font-size="14" lengthAdjust="spacing" textLength="109" x="229.5" y="251.0252">Resume Parsing</text></g><!--entity Job Matching (BERT + Faiss)--><g id="elem_Job Matching (BERT + Faiss)"><rect fill="#F1F1F1" height="46.4883" rx="2.5" ry="2.5" style="stroke:#181818;stroke-width:0.5;" width="230" x="398" y="217.49"/><rect fill="#F1F1F1" height="10" style="stroke:#181818;stroke-width:0.5;" width="15" x="608" y="222.49"/><rect fill="#F1F1F1" height="2" style="stroke:#181818;stroke-width:0.5;" width="4" x="606" y="224.49"/><rect fill="#F1F1F1" height="2" style="stroke:#181818;stroke-width:0.5;" width="4" x="606" y="228.49"/><text fill="#000000" font-family="sans-serif" font-size="14" lengthAdjust="spacing" textLength="190" x="413" y="251.0252">Job Matching (BERT + Faiss)</text></g><!--entity Resume Entity--><g id="elem_Resume Entity"><rect fill="#F1F1F1" height="46.4883" rx="2.5" ry="2.5" style="stroke:#181818;stroke-width:0.5;" width="136" x="748" y="442.97"/><rect fill="#F1F1F1" height="10" style="stroke:#181818;stroke-width:0.5;" width="15" x="864" y="447.97"/><rect fill="#F1F1F1" height="2" style="stroke:#181818;stroke-width:0.5;" width="4" x="862" y="449.97"/><rect fill="#F1F1F1" height="2" style="stroke:#181818;stroke-width:0.5;" width="4" x="862" y="453.97"/><text fill="#000000" font-family="sans-serif" font-size="14" lengthAdjust="spacing" textLength="96" x="763" y="476.5052">Resume Entity</text></g><!--entity Job Entity--><g id="elem_Job Entity"><rect fill="#F1F1F1" height="46.4883" rx="2.5" ry="2.5" style="stroke:#181818;stroke-width:0.5;" width="104" x="919" y="442.97"/><rect fill="#F1F1F1" height="10" style="stroke:#181818;stroke-width:0.5;" width="15" x="1003" y="447.97"/><rect fill="#F1F1F1" height="2" style="stroke:#181818;stroke-width:0.5;" width="4" x="1001" y="449.97"/><rect fill="#F1F1F1" height="2" style="stroke:#181818;stroke-width:0.5;" width="4" x="1001" y="453.97"/><text fill="#000000" font-family="sans-serif" font-size="14" lengthAdjust="spacing" textLength="64" x="934" y="476.5052">Job Entity</text></g><!--link Frontend Layer to API Gateway (FastAPI + Nginx)--><g id="link_Frontend Layer_API Gateway (FastAPI + Nginx)"><path d="M163.87,634.26 C152.06,619.54 138.27,599.23 132,578.46 C122.32,546.42 140.2326,516.4524 158.5026,494.4924 " fill="none" id="Frontend Layer-to-API Gateway (FastAPI + Nginx)" style="stroke:#181818;stroke-width:1.0;"/><polygon fill="#181818" points="162.34,489.88,153.509,494.2404,159.1422,493.7237,159.6589,499.3569,162.34,489.88" style="stroke:#181818;stroke-width:1.0;"/><text fill="#000000" font-family="sans-serif" font-size="13" lengthAdjust="spacing" textLength="55" x="133" y="575.0284">API Calls</text></g><!--link API Gateway (FastAPI + Nginx) to Frontend Layer--><g id="link_API Gateway (FastAPI + Nginx)_Frontend Layer"><path d="M187.66,489.78 C190.86,512.24 194.76,547.7 193,578.46 C191.92,597.3 190.1905,612.6236 188.0905,628.2236 " fill="none" id="API Gateway (FastAPI + Nginx)-to-Frontend Layer" style="stroke:#181818;stroke-width:1.0;"/><polygon fill="#181818" points="187.29,634.17,192.455,625.7841,187.9571,629.2147,184.5265,624.7168,187.29,634.17" style="stroke:#181818;stroke-width:1.0;"/><text fill="#000000" font-family="sans-serif" font-size="13" lengthAdjust="spacing" textLength="121" x="194.44" y="575.0284">Return Job Matches</text></g><!--link API Gateway (FastAPI + Nginx) to Processing Layer--><g id="link_API Gateway (FastAPI + Nginx)_Processing Layer"><path d="M161.45,442.75 C119.02,397.68 35.74,293.98 84,217.49 C112.55,172.22 162.2917,148.8558 208.7817,135.2458 " fill="none" id="API Gateway (FastAPI + Nginx)-to-Processing Layer" style="stroke:#181818;stroke-width:1.0;"/><polygon fill="#181818" points="214.54,133.56,204.7787,132.2498,209.7414,134.9648,207.0264,139.9275,214.54,133.56" style="stroke:#181818;stroke-width:1.0;"/><text fill="#000000" font-family="sans-serif" font-size="13" lengthAdjust="spacing" textLength="111" x="85" y="245.7984">Forward Requests</text></g><!--link Processing Layer to Resume Parsing--><g id="link_Processing Layer_Resume Parsing"><path d="M291.44,140.81 C290.9,162.63 290.2387,189.5018 289.6987,211.2818 " fill="none" id="Processing Layer-to-Resume Parsing" style="stroke:#181818;stroke-width:1.0;"/><polygon fill="#181818" points="289.55,217.28,293.7718,208.3819,289.6739,212.2815,285.7743,208.1836,289.55,217.28" style="stroke:#181818;stroke-width:1.0;"/><text fill="#000000" font-family="sans-serif" font-size="13" lengthAdjust="spacing" textLength="108" x="291.68" y="184.0584">Process Resumes</text></g><!--link Processing Layer to Job Matching (BERT + Faiss)--><g id="link_Processing Layer_Job Matching (BERT + Faiss)"><path d="M347.98,140.97 C367.62,149.53 389.61,159.8 409,170.49 C434.46,184.51 456.8562,199.3727 477.0962,213.6427 " fill="none" id="Processing Layer-to-Job Matching (BERT + Faiss)" style="stroke:#181818;stroke-width:1.0;"/><polygon fill="#181818" points="482,217.1,476.9493,208.6448,477.9135,214.2189,472.3395,215.1832,482,217.1" style="stroke:#181818;stroke-width:1.0;"/><text fill="#000000" font-family="sans-serif" font-size="13" lengthAdjust="spacing" textLength="69" x="436.55" y="184.0584">Match Jobs</text></g><!--link Resume Parsing to Resume Entity--><g id="link_Resume Parsing_Resume Entity"><path d="M332.18,264.32 C347.48,272.08 364.89,280.65 381,287.97 C513.16,348 666.2374,408.0927 750.6674,440.4527 " fill="none" id="Resume Parsing-to-Resume Entity" style="stroke:#181818;stroke-width:1.0;"/><polygon fill="#181818" points="756.27,442.6,749.2977,435.6439,751.6012,440.8106,746.4346,443.1141,756.27,442.6" style="stroke:#181818;stroke-width:1.0;"/><text fill="#000000" font-family="sans-serif" font-size="13" lengthAdjust="spacing" textLength="118" x="428.52" y="309.5384">Store Resume Data</text></g><!--link Job Matching (BERT + Faiss) to Job Entity--><g id="link_Job Matching (BERT + Faiss)_Job Entity"><path d="M545.37,264.41 C571.47,281.3 609.83,303.08 647,312.97 C674.39,320.26 878.26,305.49 902,320.97 C944.2,348.5 960.1236,403.6067 966.4636,436.7767 " fill="none" id="Job Matching (BERT + Faiss)-to-Job Entity" style="stroke:#181818;stroke-width:1.0;"/><polygon fill="#181818" points="967.59,442.67,969.8292,433.0791,966.6513,437.7589,961.9715,434.581,967.59,442.67" style="stroke:#181818;stroke-width:1.0;"/><text fill="#000000" font-family="sans-serif" font-size="13" lengthAdjust="spacing" textLength="107" x="648" y="309.5384">Retrieve Job Data</text></g><!--link Job Matching (BERT + Faiss) to Database--><g id="link_Job Matching (BERT + Faiss)_Database"><path d="M628.45,242.49 C766.73,246.12 986.38,261.4 1039,320.97 C1049.535,332.8975 1056.0356,347.6906 1059.8495,363.2166 C1060.803,367.098 1061.5886,371.0253 1062.2273,374.9651 C1062.5466,376.935 1062.8292,378.908 1063.0778,380.8799 C1063.2021,381.8659 1063.3178,382.8516 1063.4254,383.8365 C1063.4523,384.0828 1062.8514,378.3618 1062.8773,378.608 " fill="none" id="Job Matching (BERT + Faiss)-to-Database" style="stroke:#181818;stroke-width:1.0;"/><polygon fill="#181818" points="1063.5045,384.5751,1066.5418,375.2063,1062.9818,379.6025,1058.5856,376.0426,1063.5045,384.5751" style="stroke:#181818;stroke-width:1.0;"/><text fill="#000000" font-family="sans-serif" font-size="13" lengthAdjust="spacing" textLength="157" x="1028.89" y="309.5384">Perform Similarity Search</text></g><!--link Database to Job Matching (BERT + Faiss)--><g id="link_Database_Job Matching (BERT + Faiss)"><path d="M1066.0379,415.7321 C1066.053,415.5033 1066.0678,415.2741 1066.0823,415.0445 C1066.1113,414.5853 1066.1391,414.1246 1066.1656,413.6623 C1066.2717,411.8133 1066.3575,409.9402 1066.42,408.0475 C1067.42,377.765 1062.45,342.485 1039,320.97 C1031.71,314.28 870.82,314.19 861,312.97 C814.33,307.18 705.6313,284.2926 620.6313,265.6926 " fill="none" id="Database-to-Job Matching (BERT + Faiss)" style="stroke:#181818;stroke-width:1.0;"/><polygon fill="#181818" points="614.77,264.41,622.7069,270.2414,619.6544,265.4788,624.417,262.4263,614.77,264.41" style="stroke:#181818;stroke-width:1.0;"/><text fill="#000000" font-family="sans-serif" font-size="13" lengthAdjust="spacing" textLength="134" x="862" y="309.5384">Return Matching Jobs</text></g><!--link Job Matching (BERT + Faiss) to API Gateway (FastAPI + Nginx)--><g id="link_Job Matching (BERT + Faiss)_API Gateway (FastAPI + Nginx)"><path d="M459.71,264.36 C436.04,273.36 407.58,282.8 381,287.97 C362.55,291.56 226.05,283.48 212,295.97 C170.5,332.89 173.7599,399.9005 179.0399,436.7905 " fill="none" id="Job Matching (BERT + Faiss)-to-API Gateway (FastAPI + Nginx)" style="stroke:#181818;stroke-width:1.0;"/><polygon fill="#181818" points="179.89,442.73,182.5745,433.2541,179.1816,437.7804,174.6552,434.3875,179.89,442.73" style="stroke:#181818;stroke-width:1.0;"/><text fill="#000000" font-family="sans-serif" font-size="13" lengthAdjust="spacing" textLength="116" x="213" y="309.5384">Send Best Matches</text></g><!--SRC=[ZLDDJy904BttLqouW37-0Gycyb6ZKKDQFHaEGpl2cdONPnUmCVntfv_KeW2tpdlptipReGzZMYKcIqaxY1Kk65DuDmnCTfqIhDX4PAtI2q0TmuUPGuekMkO5crb7gUTf4nFqNYsnY6rKH3tuza1-RpuRxKZw7Z4ZddcxcZnAp3g6a7X3NBDBv7Pw3tVeQ8jP1oyKs_30H-lomYKyBvJ-kfWLl5rBRReV_m-n5beDs411kVuKEOTRm8Cay5GdC1XEWXUnzr5PszWtMuxHuHmjTRpZkjmGVarLMK-qKoxhEBUBXL4VHaPhYfmosdhTmE7gwkPKPd0D-VS8aqG4Jd0BlOFOHC8tl4ME8Q3FDLadIeUiehaJhBHMH2YH_pkF9Iyo1GH24eMkITkvYb0wGcUOAbl8dy8xxj5CiPS8oB6Y3UM-PqlKhruiJop_jXH2bQe4MMJbM92ZfTUYdRE-JB9clMUKGPmUvkHnXFav3ULDIo4wyqYwbzXCs8maIZy0]--></g></svg>