<?xml version="1.0" encoding="us-ascii" standalone="no"?><svg xmlns="http://www.w3.org/2000/svg" xmlns:xlink="http://www.w3.org/1999/xlink" contentStyleType="text/css" height="1276.5625px" preserveAspectRatio="none" style="width:3962px;height:1276px;background:#FFFFFF;" version="1.1" viewBox="0 0 3962 1276" width="3962.5px" zoomAndPan="magnify"><defs/><g><!--cluster FE--><g id="cluster_FE"><rect fill="none" height="177.3281" rx="3.9063" ry="3.9063" style="stroke:#000000;stroke-width:1.5625;" width="712.5" x="51.5625" y="10.9375"/><text fill="#000000" font-family="sans-serif" font-size="21.875" font-weight="bold" lengthAdjust="spacing" textLength="167.1875" x="324.2188" y="35.2112">Frontend Layer</text></g><!--cluster APIG--><g id="cluster_APIG"><rect fill="none" height="520.2656" rx="3.9063" ry="3.9063" style="stroke:#000000;stroke-width:1.5625;" width="753.125" x="10.9375" y="289.8281"/><text fill="#000000" font-family="sans-serif" font-size="21.875" font-weight="bold" lengthAdjust="spacing" textLength="206.25" x="284.375" y="314.1018">API Gateway Layer</text></g><!--cluster PL--><g id="cluster_PL"><rect fill="none" height="332.0156" rx="3.9063" ry="3.9063" style="stroke:#000000;stroke-width:1.5625;" width="1953.125" x="826.5625" y="540.5781"/><text fill="#000000" font-family="sans-serif" font-size="21.875" font-weight="bold" lengthAdjust="spacing" textLength="189.0625" x="1708.5938" y="564.8518">Processing Layer</text></g><!--cluster RP--><g id="cluster_RP"><rect fill="none" height="177.3281" rx="3.9063" ry="3.9063" style="stroke:#000000;stroke-width:1.5625;" width="789.0625" x="901.5625" y="632.7656"/><text fill="#000000" font-family="sans-serif" font-size="21.875" font-weight="bold" lengthAdjust="spacing" textLength="218.75" x="1186.7188" y="657.0393">Resume Processing</text></g><!--cluster JM--><g id="cluster_JM"><rect fill="none" height="177.3281" rx="3.9063" ry="3.9063" style="stroke:#000000;stroke-width:1.5625;" width="615.625" x="1753.125" y="632.7656"/><text fill="#000000" font-family="sans-serif" font-size="21.875" font-weight="bold" lengthAdjust="spacing" textLength="148.4375" x="1986.7188" y="657.0393">Job Matching</text></g><!--cluster DB--><g id="cluster_DB"><rect fill="none" height="307.0156" rx="3.9063" ry="3.9063" style="stroke:#000000;stroke-width:1.5625;" width="2006.25" x="818.75" y="961.6563"/><text fill="#000000" font-family="sans-serif" font-size="21.875" font-weight="bold" lengthAdjust="spacing" textLength="170.3125" x="1736.7188" y="985.9299">Database Layer</text></g><!--cluster NOSQLDB--><g id="cluster_NOSQLDB"><rect fill="none" height="177.3281" rx="3.9063" ry="3.9063" style="stroke:#000000;stroke-width:1.5625;" width="942.1875" x="868.75" y="1041.3438"/><text fill="#000000" font-family="sans-serif" font-size="21.875" font-weight="bold" lengthAdjust="spacing" textLength="198.4375" x="1240.625" y="1065.6174">NoSQL Databases</text></g><!--cluster CACHE--><g id="cluster_CACHE"><rect fill="none" height="177.3281" rx="3.9063" ry="3.9063" style="stroke:#000000;stroke-width:1.5625;" width="901.5625" x="1873.4375" y="1041.3438"/><text fill="#000000" font-family="sans-serif" font-size="21.875" font-weight="bold" lengthAdjust="spacing" textLength="193.75" x="2227.3438" y="1065.6174">Cache &amp; Indexing</text></g><!--cluster LOGS--><g id="cluster_LOGS"><rect fill="none" height="177.3281" rx="3.9063" ry="3.9063" style="stroke:#000000;stroke-width:1.5625;" width="762.5" x="3150" y="632.7656"/><text fill="#000000" font-family="sans-serif" font-size="21.875" font-weight="bold" lengthAdjust="spacing" textLength="246.875" x="3407.8125" y="657.0393">Logging &amp; Monitoring</text></g><!--entity React.js / Next.js--><g id="elem_React.js / Next.js"><rect fill="#F1F1F1" height="72.6379" rx="3.9063" ry="3.9063" style="stroke:#181818;stroke-width:0.78125;" width="240.625" x="89.0625" y="78.125"/><rect fill="#F1F1F1" height="15.625" style="stroke:#181818;stroke-width:0.78125;" width="23.4375" x="298.4375" y="85.9375"/><rect fill="#F1F1F1" height="3.125" style="stroke:#181818;stroke-width:0.78125;" width="6.25" x="295.3125" y="89.0625"/><rect fill="#F1F1F1" height="3.125" style="stroke:#181818;stroke-width:0.78125;" width="6.25" x="295.3125" y="95.3125"/><text fill="#000000" font-family="sans-serif" font-size="21.875" lengthAdjust="spacing" textLength="178.125" x="112.5" y="130.5237">React.js / Next.js</text></g><!--entity Auth UI (Firebase Auth)--><g id="elem_Auth UI (Firebase Auth)"><rect fill="#F1F1F1" height="72.6379" rx="3.9063" ry="3.9063" style="stroke:#181818;stroke-width:0.78125;" width="312.5" x="384.375" y="78.125"/><rect fill="#F1F1F1" height="15.625" style="stroke:#181818;stroke-width:0.78125;" width="23.4375" x="665.625" y="85.9375"/><rect fill="#F1F1F1" height="3.125" style="stroke:#181818;stroke-width:0.78125;" width="6.25" x="662.5" y="89.0625"/><rect fill="#F1F1F1" height="3.125" style="stroke:#181818;stroke-width:0.78125;" width="6.25" x="662.5" y="95.3125"/><text fill="#000000" font-family="sans-serif" font-size="21.875" lengthAdjust="spacing" textLength="250" x="407.8125" y="130.5237">Auth UI (Firebase Auth)</text></g><!--entity FastAPI + Nginx--><g id="elem_FastAPI + Nginx"><rect fill="#F1F1F1" height="72.6379" rx="3.9063" ry="3.9063" style="stroke:#181818;stroke-width:0.78125;" width="234.375" x="48.4375" y="357.0156"/><rect fill="#F1F1F1" height="15.625" style="stroke:#181818;stroke-width:0.78125;" width="23.4375" x="251.5625" y="364.8281"/><rect fill="#F1F1F1" height="3.125" style="stroke:#181818;stroke-width:0.78125;" width="6.25" x="248.4375" y="367.9531"/><rect fill="#F1F1F1" height="3.125" style="stroke:#181818;stroke-width:0.78125;" width="6.25" x="248.4375" y="374.2031"/><text fill="#000000" font-family="sans-serif" font-size="21.875" lengthAdjust="spacing" textLength="171.875" x="71.875" y="409.4143">FastAPI + Nginx</text></g><!--entity Rate Limiting & API Gateway--><g id="elem_Rate Limiting &amp; API Gateway"><rect fill="#F1F1F1" height="72.6379" rx="3.9063" ry="3.9063" style="stroke:#181818;stroke-width:0.78125;" width="359.375" x="337.5" y="357.0156"/><rect fill="#F1F1F1" height="15.625" style="stroke:#181818;stroke-width:0.78125;" width="23.4375" x="665.625" y="364.8281"/><rect fill="#F1F1F1" height="3.125" style="stroke:#181818;stroke-width:0.78125;" width="6.25" x="662.5" y="367.9531"/><rect fill="#F1F1F1" height="3.125" style="stroke:#181818;stroke-width:0.78125;" width="6.25" x="662.5" y="374.2031"/><text fill="#000000" font-family="sans-serif" font-size="21.875" lengthAdjust="spacing" textLength="296.875" x="360.9375" y="409.4143">Rate Limiting &amp; API Gateway</text></g><!--entity Authentication Service--><g id="elem_Authentication Service"><rect fill="#F1F1F1" height="72.6379" rx="3.9063" ry="3.9063" style="stroke:#181818;stroke-width:0.78125;" width="301.5625" x="49.2188" y="699.9531"/><rect fill="#F1F1F1" height="15.625" style="stroke:#181818;stroke-width:0.78125;" width="23.4375" x="319.5313" y="707.7656"/><rect fill="#F1F1F1" height="3.125" style="stroke:#181818;stroke-width:0.78125;" width="6.25" x="316.4063" y="710.8906"/><rect fill="#F1F1F1" height="3.125" style="stroke:#181818;stroke-width:0.78125;" width="6.25" x="316.4063" y="717.1406"/><text fill="#000000" font-family="sans-serif" font-size="21.875" lengthAdjust="spacing" textLength="239.0625" x="72.6563" y="752.3518">Authentication Service</text></g><!--entity Recommendation Engine--><g id="elem_Recommendation Engine"><rect fill="#F1F1F1" height="72.6379" rx="3.9063" ry="3.9063" style="stroke:#181818;stroke-width:0.78125;" width="329.6875" x="2411.7188" y="699.9531"/><rect fill="#F1F1F1" height="15.625" style="stroke:#181818;stroke-width:0.78125;" width="23.4375" x="2710.1563" y="707.7656"/><rect fill="#F1F1F1" height="3.125" style="stroke:#181818;stroke-width:0.78125;" width="6.25" x="2707.0313" y="710.8906"/><rect fill="#F1F1F1" height="3.125" style="stroke:#181818;stroke-width:0.78125;" width="6.25" x="2707.0313" y="717.1406"/><text fill="#000000" font-family="sans-serif" font-size="21.875" lengthAdjust="spacing" textLength="267.1875" x="2435.1563" y="752.3518">Recommendation Engine</text></g><!--entity Resume Upload--><g id="elem_Resume Upload"><rect fill="#F1F1F1" height="72.6379" rx="3.9063" ry="3.9063" style="stroke:#181818;stroke-width:0.78125;" width="229.6875" x="939.8438" y="699.9531"/><rect fill="#F1F1F1" height="15.625" style="stroke:#181818;stroke-width:0.78125;" width="23.4375" x="1138.2813" y="707.7656"/><rect fill="#F1F1F1" height="3.125" style="stroke:#181818;stroke-width:0.78125;" width="6.25" x="1135.1563" y="710.8906"/><rect fill="#F1F1F1" height="3.125" style="stroke:#181818;stroke-width:0.78125;" width="6.25" x="1135.1563" y="717.1406"/><text fill="#000000" font-family="sans-serif" font-size="21.875" lengthAdjust="spacing" textLength="167.1875" x="963.2813" y="752.3518">Resume Upload</text></g><!--entity Resume Parser (spaCy, OpenAI)--><g id="elem_Resume Parser (spaCy, OpenAI)"><rect fill="#F1F1F1" height="72.6379" rx="3.9063" ry="3.9063" style="stroke:#181818;stroke-width:0.78125;" width="398.4375" x="1224.2188" y="699.9531"/><rect fill="#F1F1F1" height="15.625" style="stroke:#181818;stroke-width:0.78125;" width="23.4375" x="1591.4063" y="707.7656"/><rect fill="#F1F1F1" height="3.125" style="stroke:#181818;stroke-width:0.78125;" width="6.25" x="1588.2813" y="710.8906"/><rect fill="#F1F1F1" height="3.125" style="stroke:#181818;stroke-width:0.78125;" width="6.25" x="1588.2813" y="717.1406"/><text fill="#000000" font-family="sans-serif" font-size="21.875" lengthAdjust="spacing" textLength="335.9375" x="1247.6563" y="752.3518">Resume Parser (spaCy, OpenAI)</text></g><!--entity BERT Model--><g id="elem_BERT Model"><rect fill="#F1F1F1" height="72.6379" rx="3.9063" ry="3.9063" style="stroke:#181818;stroke-width:0.78125;" width="187.5" x="1790.625" y="699.9531"/><rect fill="#F1F1F1" height="15.625" style="stroke:#181818;stroke-width:0.78125;" width="23.4375" x="1946.875" y="707.7656"/><rect fill="#F1F1F1" height="3.125" style="stroke:#181818;stroke-width:0.78125;" width="6.25" x="1943.75" y="710.8906"/><rect fill="#F1F1F1" height="3.125" style="stroke:#181818;stroke-width:0.78125;" width="6.25" x="1943.75" y="717.1406"/><text fill="#000000" font-family="sans-serif" font-size="21.875" lengthAdjust="spacing" textLength="125" x="1814.0625" y="752.3518">BERT Model</text></g><!--entity Faiss Vector Search--><g id="elem_Faiss Vector Search"><rect fill="#F1F1F1" height="72.6379" rx="3.9063" ry="3.9063" style="stroke:#181818;stroke-width:0.78125;" width="268.75" x="2032.8125" y="699.9531"/><rect fill="#F1F1F1" height="15.625" style="stroke:#181818;stroke-width:0.78125;" width="23.4375" x="2270.3125" y="707.7656"/><rect fill="#F1F1F1" height="3.125" style="stroke:#181818;stroke-width:0.78125;" width="6.25" x="2267.1875" y="710.8906"/><rect fill="#F1F1F1" height="3.125" style="stroke:#181818;stroke-width:0.78125;" width="6.25" x="2267.1875" y="717.1406"/><text fill="#000000" font-family="sans-serif" font-size="21.875" lengthAdjust="spacing" textLength="206.25" x="2056.25" y="752.3518">Faiss Vector Search</text></g><!--entity MongoDB (User & Job Data)--><g id="elem_MongoDB (User &amp; Job Data)"><rect fill="#F1F1F1" height="72.6379" rx="3.9063" ry="3.9063" style="stroke:#181818;stroke-width:0.78125;" width="353.125" x="906.25" y="1108.5313"/><rect fill="#F1F1F1" height="15.625" style="stroke:#181818;stroke-width:0.78125;" width="23.4375" x="1228.125" y="1116.3438"/><rect fill="#F1F1F1" height="3.125" style="stroke:#181818;stroke-width:0.78125;" width="6.25" x="1225" y="1119.4688"/><rect fill="#F1F1F1" height="3.125" style="stroke:#181818;stroke-width:0.78125;" width="6.25" x="1225" y="1125.7188"/><text fill="#000000" font-family="sans-serif" font-size="21.875" lengthAdjust="spacing" textLength="290.625" x="929.6875" y="1160.9299">MongoDB (User &amp; Job Data)</text></g><!--entity VectorDB (Candidate Embeddings)--><g id="elem_VectorDB (Candidate Embeddings)"><rect fill="#F1F1F1" height="72.6379" rx="3.9063" ry="3.9063" style="stroke:#181818;stroke-width:0.78125;" width="429.6875" x="1313.2813" y="1108.5313"/><rect fill="#F1F1F1" height="15.625" style="stroke:#181818;stroke-width:0.78125;" width="23.4375" x="1711.7188" y="1116.3438"/><rect fill="#F1F1F1" height="3.125" style="stroke:#181818;stroke-width:0.78125;" width="6.25" x="1708.5938" y="1119.4688"/><rect fill="#F1F1F1" height="3.125" style="stroke:#181818;stroke-width:0.78125;" width="6.25" x="1708.5938" y="1125.7188"/><text fill="#000000" font-family="sans-serif" font-size="21.875" lengthAdjust="spacing" textLength="367.1875" x="1336.7188" y="1160.9299">VectorDB (Candidate Embeddings)</text></g><!--entity Redis (Session & Caching)--><g id="elem_Redis (Session &amp; Caching)"><rect fill="#F1F1F1" height="72.6379" rx="3.9063" ry="3.9063" style="stroke:#181818;stroke-width:0.78125;" width="339.0625" x="1911.7188" y="1108.5313"/><rect fill="#F1F1F1" height="15.625" style="stroke:#181818;stroke-width:0.78125;" width="23.4375" x="2219.5313" y="1116.3438"/><rect fill="#F1F1F1" height="3.125" style="stroke:#181818;stroke-width:0.78125;" width="6.25" x="2216.4063" y="1119.4688"/><rect fill="#F1F1F1" height="3.125" style="stroke:#181818;stroke-width:0.78125;" width="6.25" x="2216.4063" y="1125.7188"/><text fill="#000000" font-family="sans-serif" font-size="21.875" lengthAdjust="spacing" textLength="276.5625" x="1935.1563" y="1160.9299">Redis (Session &amp; Caching)</text></g><!--entity ElasticSearch (Job Search Index)--><g id="elem_ElasticSearch (Job Search Index)"><rect fill="#F1F1F1" height="72.6379" rx="3.9063" ry="3.9063" style="stroke:#181818;stroke-width:0.78125;" width="403.125" x="2304.6875" y="1108.5313"/><rect fill="#F1F1F1" height="15.625" style="stroke:#181818;stroke-width:0.78125;" width="23.4375" x="2676.5625" y="1116.3438"/><rect fill="#F1F1F1" height="3.125" style="stroke:#181818;stroke-width:0.78125;" width="6.25" x="2673.4375" y="1119.4688"/><rect fill="#F1F1F1" height="3.125" style="stroke:#181818;stroke-width:0.78125;" width="6.25" x="2673.4375" y="1125.7188"/><text fill="#000000" font-family="sans-serif" font-size="21.875" lengthAdjust="spacing" textLength="340.625" x="2328.125" y="1160.9299">ElasticSearch (Job Search Index)</text></g><!--entity Prometheus (Monitoring)--><g id="elem_Prometheus (Monitoring)"><rect fill="#F1F1F1" height="72.6379" rx="3.9063" ry="3.9063" style="stroke:#181818;stroke-width:0.78125;" width="331.25" x="3187.5" y="699.9531"/><rect fill="#F1F1F1" height="15.625" style="stroke:#181818;stroke-width:0.78125;" width="23.4375" x="3487.5" y="707.7656"/><rect fill="#F1F1F1" height="3.125" style="stroke:#181818;stroke-width:0.78125;" width="6.25" x="3484.375" y="710.8906"/><rect fill="#F1F1F1" height="3.125" style="stroke:#181818;stroke-width:0.78125;" width="6.25" x="3484.375" y="717.1406"/><text fill="#000000" font-family="sans-serif" font-size="21.875" lengthAdjust="spacing" textLength="268.75" x="3210.9375" y="752.3518">Prometheus (Monitoring)</text></g><!--entity ELK Stack (Logging)--><g id="elem_ELK Stack (Logging)"><rect fill="#F1F1F1" height="72.6379" rx="3.9063" ry="3.9063" style="stroke:#181818;stroke-width:0.78125;" width="271.875" x="3573.4375" y="699.9531"/><rect fill="#F1F1F1" height="15.625" style="stroke:#181818;stroke-width:0.78125;" width="23.4375" x="3814.0625" y="707.7656"/><rect fill="#F1F1F1" height="3.125" style="stroke:#181818;stroke-width:0.78125;" width="6.25" x="3810.9375" y="710.8906"/><rect fill="#F1F1F1" height="3.125" style="stroke:#181818;stroke-width:0.78125;" width="6.25" x="3810.9375" y="717.1406"/><text fill="#000000" font-family="sans-serif" font-size="21.875" lengthAdjust="spacing" textLength="209.375" x="3596.875" y="752.3518">ELK Stack (Logging)</text></g><!--link FE to APIG--><g id="link_FE_APIG"><path d="M751.5625,188.9837 C751.5625,189.4504 751.5625,189.9184 751.5625,190.3876 C751.5625,191.326 751.5625,192.2695 751.5625,193.2178 C751.5625,197.0108 751.5625,200.8804 751.5625,204.8112 C751.5625,220.5342 751.5625,237.2363 751.5625,253.9375 C751.5625,262.2881 751.5625,270.6384 751.5625,278.866 C751.5625,280.9229 751.5625,282.9721 751.5625,285.0118 C751.5625,286.0316 751.5625,287.049 751.5625,288.0638 C751.5625,288.5712 751.5625,279.7029 751.5625,280.209 " fill="none" id="FE-to-APIG" style="stroke:#181818;stroke-width:1.5625;"/><polygon fill="#181818" points="751.5625,289.584,757.8125,275.5215,751.5625,281.7715,745.3125,275.5215,751.5625,289.584" style="stroke:#181818;stroke-width:1.5625;"/><text fill="#000000" font-family="sans-serif" font-size="20.3125" lengthAdjust="spacing" textLength="85.9375" x="753.125" y="246.9662">API Calls</text></g><!--link APIG to RP--><g id="link_APIG_RP"><path d="M764.9215,396.2245 C765.3781,396.2703 765.8457,396.3173 766.3243,396.3653 C767.2814,396.4615 768.2825,396.5621 769.3266,396.6671 C771.4149,396.8772 773.6756,397.105 776.1025,397.35 C780.9562,397.84 786.4743,398.3988 792.6068,399.0224 C817.1364,401.5167 851.4934,405.0476 892.4595,409.3579 C974.3916,417.9785 1082.7598,429.7168 1191.8164,442.5156 C1409.9297,468.1133 1630.7969,497.9531 1648.4375,515.5781 C1665.5469,532.6758 1676.0332,554.6299 1682.1201,578.0146 C1685.1636,589.707 1687.1072,601.7571 1688.2289,613.7366 C1688.7897,619.7263 1689.1451,625.6984 1689.3298,631.5994 C1689.3413,631.9682 1689.0922,622.9653 1689.1024,623.3335 " fill="none" id="APIG-to-RP" style="stroke:#181818;stroke-width:1.5625;"/><polygon fill="#181818" points="1689.3624,632.7049,1695.22,618.4745,1689.1457,624.8954,1682.7248,618.8212,1689.3624,632.7049" style="stroke:#181818;stroke-width:1.5625;"/><text fill="#000000" font-family="sans-serif" font-size="20.3125" lengthAdjust="spacing" textLength="284.375" x="1604.4375" y="497.7162">Resume Processing Requests</text></g><!--link APIG to JM--><g id="link_APIG_JM"><path d="M765.8168,394.9081 C767.0593,394.9107 768.3798,394.9137 769.7768,394.9172 C780.9531,394.9448 797.0323,395.001 817.346,395.1154 C857.9735,395.3444 915.5393,395.8065 984.6968,396.739 C1123.0117,398.604 1307.6934,402.3506 1495.9688,409.877 C1872.5195,424.9297 2263.4453,455.1016 2326.5625,515.5781 C2335.293,523.9453 2341.5244,541.4658 2345.958,563.1277 C2348.1748,573.9586 2349.9421,585.8249 2351.3477,598.1 C2352.0504,604.2376 2352.6627,610.4773 2353.1955,616.741 C2353.4619,619.8728 2353.7085,623.0106 2353.9365,626.1446 C2354.0505,627.7116 2354.1599,629.2777 2354.2648,630.8415 C2354.291,631.2325 2353.7021,622.2685 2353.7278,622.6592 " fill="none" id="APIG-to-JM" style="stroke:#181818;stroke-width:1.5625;"/><polygon fill="#181818" points="2354.3427,632.014,2359.6569,617.5719,2353.8303,624.2183,2347.1838,618.3917,2354.3427,632.014" style="stroke:#181818;stroke-width:1.5625;"/><text fill="#000000" font-family="sans-serif" font-size="20.3125" lengthAdjust="spacing" textLength="223.4375" x="2306.75" y="497.7162">Job Matching Requests</text></g><!--link APIG to CACHE--><g id="link_APIG_CACHE"><path d="M765.9461,395.2077 C768.8443,395.273 772.1651,395.3482 775.8941,395.4335 C790.8101,395.7747 812.2577,396.2756 839.3217,396.9355 C893.4499,398.2553 970.0438,400.2108 1061.782,402.7947 C1245.2583,407.9624 1489.3115,415.6436 1735.3691,425.7793 C2227.4844,446.0508 2727.6172,476.1406 2767.1875,515.5781 C2901.5781,649.5313 2870.3594,749.7969 2837.5,936.6563 C2829.1719,984.0156 2810.875,1034.8125 2794.4395,1074.1895 C2790.3306,1084.0337 2786.338,1093.1642 2782.6466,1101.3488 C2780.8009,1105.4411 2779.0306,1109.2969 2777.3586,1112.8872 C2776.9406,1113.7848 2776.5287,1114.6658 2776.1234,1115.5298 C2775.9207,1115.9617 2775.7197,1116.3895 2775.5203,1116.8128 C2775.4206,1117.0245 2779.3211,1108.7562 2779.2223,1108.9657 " fill="none" id="APIG-to-CACHE" style="stroke:#181818;stroke-width:1.5625;"/><polygon fill="#181818" points="2775.2225,1117.4447,2786.8748,1107.3928,2778.5557,1110.3789,2775.5696,1102.0598,2775.2225,1117.4447" style="stroke:#181818;stroke-width:1.5625;"/><text fill="#000000" font-family="sans-serif" font-size="20.3125" lengthAdjust="spacing" textLength="237.5" x="2867.5156" y="744.2006">Read/Write Cached Data</text></g><!--link APIG to LOGS--><g id="link_APIG_LOGS"><path d="M765.0913,395.1672 C765.9809,395.1857 766.9132,395.2051 767.8879,395.2254 C769.8372,395.266 771.9558,395.3102 774.2408,395.358 C778.811,395.4535 784.0469,395.5634 789.926,395.6872 C813.4422,396.1827 847.2474,396.9028 889.8831,397.8315 C975.1543,399.6888 1095.7471,402.3805 1239.9922,405.7786 C1528.4824,412.5747 1911.582,422.1963 2295.9375,433.6191 C3064.6484,456.4648 3838.3828,486.5156 3870.3125,515.5781 C3888.1992,531.8594 3899.0801,553.3984 3905.3201,576.6216 C3908.4401,588.2332 3910.3998,600.2657 3911.495,612.2726 C3912.0426,618.2761 3912.3741,624.2731 3912.5263,630.2079 C3912.6024,633.1753 3912.6338,636.1271 3912.6249,639.0563 C3912.6205,640.521 3912.606,641.98 3912.5821,643.4325 C3912.5701,644.1587 3912.5558,644.8833 3912.5391,645.6062 C3912.5308,645.9676 3912.7677,636.9569 3912.7582,637.3174 " fill="none" id="APIG-to-LOGS" style="stroke:#181818;stroke-width:1.5625;"/><polygon fill="#181818" points="3912.5125,646.6892,3919.1289,632.7954,3912.7172,638.8794,3906.6332,632.4677,3912.5125,646.6892" style="stroke:#181818;stroke-width:1.5625;"/><text fill="#000000" font-family="sans-serif" font-size="20.3125" lengthAdjust="spacing" textLength="139.0625" x="3802.1719" y="497.7162">Logs API Calls</text></g><!--link PL to NOSQLDB--><g id="link_PL_NOSQLDB"><path d="M887.8826,872.8025 C889.3913,874.7018 890.9452,876.5609 892.5456,878.3743 C898.947,885.6279 906.0918,892.1504 914.0625,897.5938 C1022.1094,971.375 1370.9219,929.25 1501.5625,936.6563 C1516.3125,937.5 1756.1719,939.3125 1767.1875,949.1563 C1783.2266,963.4844 1793.2637,982.5176 1799.2817,1003.0723 C1802.2908,1013.3496 1804.295,1024.0073 1805.5424,1034.6475 C1805.6983,1035.9775 1805.8424,1037.3072 1805.9752,1038.6359 C1806.0416,1039.3003 1805.2504,1030.6284 1805.3111,1031.2921 " fill="none" id="PL-to-NOSQLDB" style="stroke:#181818;stroke-width:1.5625;"/><polygon fill="#181818" points="1806.1659,1040.6281,1811.1077,1026.0543,1805.4536,1032.8481,1798.6598,1027.194,1806.1659,1040.6281" style="stroke:#181818;stroke-width:1.5625;"/><text fill="#000000" font-family="sans-serif" font-size="20.3125" lengthAdjust="spacing" textLength="235.9375" x="1503.125" y="931.2943">Data Storage &amp; Retrieval</text></g><!--link RP to NOSQLDB--><g id="link_RP_NOSQLDB"><path d="M1690.829,767.4561 C1690.9506,767.7401 1691.0729,768.0257 1691.1959,768.3128 C1691.6878,769.4612 1692.1902,770.6341 1692.7024,771.8303 C1700.8979,790.9692 1711.6182,816.0479 1722.3652,841.3145 C1743.8594,891.8477 1765.4609,943.1328 1767.1875,949.1563 C1773.1133,969.832 1778.0146,992.0889 1782.0371,1013.8962 C1783.0427,1019.3481 1783.9934,1024.7718 1784.8914,1030.1358 C1785.3404,1032.8177 1785.7763,1035.4847 1786.1993,1038.1328 C1786.305,1038.7949 1786.4099,1039.4557 1786.5141,1040.1153 C1786.5661,1040.4451 1785.1643,1031.513 1785.2159,1031.8422 " fill="none" id="RP-to-NOSQLDB" style="stroke:#181818;stroke-width:1.5625;"/><polygon fill="#181818" points="1786.6697,1041.1038,1790.6634,1026.2422,1785.4582,1033.3858,1778.3146,1028.1805,1786.6697,1041.1038" style="stroke:#181818;stroke-width:1.5625;"/><text fill="#000000" font-family="sans-serif" font-size="20.3125" lengthAdjust="spacing" textLength="184.375" x="1762.9063" y="931.2943">Store Resume Data</text></g><!--link JM to NOSQLDB--><g id="link_JM_NOSQLDB"><path d="M2361.3862,810.2666 C2361.3699,810.5355 2361.3532,810.8046 2361.3359,811.0739 C2361.2669,812.1513 2361.1901,813.2319 2361.1052,814.3153 C2360.7657,818.649 2360.296,823.0261 2359.672,827.4057 C2358.4241,836.1647 2356.5591,844.9332 2353.8838,853.3816 C2348.5332,870.2783 2339.9414,885.8945 2326.5625,897.5938 C2305.7656,915.7969 2105.5156,906.4531 2078.125,910.0938 C2023.1719,917.4219 2010.6406,925.9063 1956.25,936.6563 C1925.1094,942.8125 1910.9844,929.6563 1885.9375,949.1563 C1849.1875,977.7734 1827.418,1025.25 1814.7852,1066.0879 C1813.9956,1068.6403 1813.2417,1071.1667 1812.5221,1073.661 C1812.1623,1074.9081 1811.8111,1076.1472 1811.4683,1077.3775 C1811.2968,1077.9926 1813.6041,1069.5636 1813.4368,1070.1742 " fill="none" id="JM-to-NOSQLDB" style="stroke:#181818;stroke-width:1.5625;"/><polygon fill="#181818" points="1810.9603,1079.2162,1820.7031,1067.3043,1813.0241,1071.6812,1808.6471,1064.0022,1810.9603,1079.2162" style="stroke:#181818;stroke-width:1.5625;"/><text fill="#000000" font-family="sans-serif" font-size="20.3125" lengthAdjust="spacing" textLength="281.25" x="2079.6875" y="931.2943">Store Candidate Embeddings</text></g><!--link JM to CACHE--><g id="link_JM_CACHE"><path d="M2340.4727,810.2914 C2340.4325,810.8238 2340.3941,811.3571 2340.3577,811.8914 C2340.066,816.1656 2339.8969,820.4989 2339.8802,824.8541 C2339.8469,833.5645 2340.4233,842.3627 2341.8486,850.9514 C2344.6992,868.1289 2350.9453,884.4688 2362.5,897.5938 C2431.8281,976.3438 2491.2656,923.2188 2595.3125,936.6563 C2610.5313,938.625 2721.6406,938.6406 2732.8125,949.1563 C2748.457,963.875 2758.1992,983.1064 2763.9968,1003.738 C2766.8956,1014.0538 2768.8083,1024.7197 2769.9795,1035.3465 C2770.1259,1036.6748 2770.2607,1038.0026 2770.3845,1039.3289 C2770.4463,1039.9921 2769.7106,1031.3137 2769.7669,1031.9761 " fill="none" id="JM-to-CACHE" style="stroke:#181818;stroke-width:1.5625;"/><polygon fill="#181818" points="2770.5618,1041.3174,2775.597,1026.7756,2769.8994,1033.533,2763.142,1027.8354,2770.5618,1041.3174" style="stroke:#181818;stroke-width:1.5625;"/><text fill="#000000" font-family="sans-serif" font-size="20.3125" lengthAdjust="spacing" textLength="232.8125" x="2596.875" y="931.2943">Cache Frequent Queries</text></g><!--link LOGS to NOSQLDB--><g id="link_LOGS_NOSQLDB"><path d="M3905.2552,810.4045 C3905.2391,810.6737 3905.2226,810.943 3905.2055,811.2126 C3905.1373,812.2909 3905.0613,813.3724 3904.9771,814.4567 C3904.6403,818.7936 3904.1726,823.1732 3903.5497,827.554 C3902.3039,836.3156 3900.4371,845.0822 3897.7546,853.5222 C3892.3896,870.4023 3883.7617,885.9766 3870.3125,897.5938 C3827.125,934.9063 2900.7969,935.2031 2843.75,936.6563 C2817.1563,937.3438 1908.1875,934.5781 1885.9375,949.1563 C1846.9766,974.6953 1825.1719,1022.1211 1813.0723,1063.7031 C1812.6942,1065.0026 1812.3255,1066.2963 1811.9661,1067.5835 C1811.7864,1068.2271 1811.6091,1068.869 1811.434,1069.5092 C1811.3464,1069.8293 1813.709,1061.0997 1813.6226,1061.4189 " fill="none" id="LOGS-to-NOSQLDB" style="stroke:#181818;stroke-width:1.5625;"/><polygon fill="#181818" points="1811.173,1070.4682,1820.8803,1058.5273,1813.2143,1062.9271,1808.8145,1055.2612,1811.173,1070.4682" style="stroke:#181818;stroke-width:1.5625;"/><text fill="#000000" font-family="sans-serif" font-size="20.3125" lengthAdjust="spacing" textLength="143.75" x="3806.6094" y="931.2943">Store Log Data</text></g><!--SRC=[TLF1Kjim4BtxAtOuq30jfJtqaaDd4cFJq2G4kxG7XiDYRHqLMqeb1SWm_VUkP3iu179oLa_llNsxidTIhT1W3M8buVENJv7TLWmL3bLP4Jn5mB-nDe9Ch2jjO5nXSHUggLOkTnj6ZNKbedzHz0vImqLI0gQu8HCz4ntidXm0MaYJm7-T4HRkunyB9p2dH_zruykZjLl2rGG6gJHqYvR0Luvk6gNHOW9dwEW1D_jYUuT1ZwjdZMAArddCUvYNKZq6kOpnC9MrT5ALSDWNsDeXvMI1Jce5EPbxML3hPc5qGTRwctjcNfu5BujfSDA3PMJNDVMO0YvRj3EuRi-lLfL6SRDJMw2nP61WLnXlFi35YjHeSkGnR6v7v5pVmWnTiUpupsST_pZ9Vi1C2wfQyXIbjV2JB_FOSq9JBBUKh5pekkPvDcaaYdFimZX5Xs5UUr7idWG3f-ENGSnrVZdTajY0cbzmhOMo-aohKlFVmPNl-n1yM_x2KMkzCUq1CIeXXHzjKj-I4DotRPC1sDMDiLWIaqsKeCSkdtWKVqkUHo2aXK7kvyDD7uA_miXEDgbuhsJHP0K3xwhz3fojRiXegikosJFkHR9P_jDFwhNpO6XwSPOtIyoRKXFlv9ejFOE2o7Ko_GwvuvSAWvQfUpUdz9id1HbLON9sALSsufTuBFI3ElxQF99XsFuOgyf6eT2TyZeEOMzJkV9tJTQz0FDk3Q6_SM_WcemzBugJNqRoiC8iH9ZfBZQqF_JnsPv7VaqTeDkKORZC8MY3fHzhHiv8kiSguYRsqHv8NMj1b-s_1Njjg_huhgDcfLBZsrOEBjV45cmKcdYBcrjhzFy3]--></g></svg>