<?xml version="1.0" encoding="us-ascii" standalone="no"?><svg xmlns="http://www.w3.org/2000/svg" xmlns:xlink="http://www.w3.org/1999/xlink" contentStyleType="text/css" height="1356.25px" preserveAspectRatio="none" style="width:3296px;height:1356px;background:#FFFFFF;" version="1.1" viewBox="0 0 3296 1356" width="3296.875px" zoomAndPan="magnify"><defs/><g><!--cluster SYSTEM--><g id="cluster_SYSTEM"><rect fill="#D3D3D3" height="1121.7969" rx="3.9063" ry="3.9063" style="stroke:#000000;stroke-width:1.5625;" width="3071.875" x="215.625" y="226.5469"/><text fill="#000000" font-family="sans-serif" font-size="21.875" font-weight="bold" lengthAdjust="spacing" textLength="237.5" x="1632.8125" y="250.8206">Job Matching System</text></g><!--cluster FRONTEND--><g id="cluster_FRONTEND"><rect fill="#D3D3D3" height="487.4531" rx="3.9063" ry="3.9063" style="stroke:#000000;stroke-width:1.5625;" width="643.75" x="2593.75" y="306.2344"/><text fill="#000000" font-family="sans-serif" font-size="21.875" font-weight="bold" lengthAdjust="spacing" textLength="314.0625" x="2758.5938" y="330.5081">Frontend (React.js / Next.js)</text></g><!--cluster API_GATEWAY--><g id="cluster_API_GATEWAY"><rect fill="#D3D3D3" height="207" rx="3.9063" ry="3.9063" style="stroke:#000000;stroke-width:1.5625;" width="818.75" x="1712.5" y="586.6875"/><text fill="#000000" font-family="sans-serif" font-size="21.875" font-weight="bold" lengthAdjust="spacing" textLength="139.0625" x="2052.3438" y="610.9612">API Gateway</text></g><!--cluster PROCESSING--><g id="cluster_PROCESSING"><rect fill="#D3D3D3" height="515.5781" rx="3.9063" ry="3.9063" style="stroke:#000000;stroke-width:1.5625;" width="750" x="900" y="586.6875"/><text fill="#000000" font-family="sans-serif" font-size="21.875" font-weight="bold" lengthAdjust="spacing" textLength="220.3125" x="1164.8438" y="610.9612">Processing Services</text></g><!--cluster DATABASE--><g id="cluster_DATABASE"><rect fill="#D3D3D3" height="403.0938" rx="3.9063" ry="3.9063" style="stroke:#000000;stroke-width:1.5625;" width="925" x="2312.5" y="895.25"/><text fill="#000000" font-family="sans-serif" font-size="21.875" font-weight="bold" lengthAdjust="spacing" textLength="200" x="2675" y="919.5237">Database &amp; Cache</text></g><!--cluster EXT--><g id="cluster_EXT"><rect fill="#D3D3D3" height="207.0156" rx="3.9063" ry="3.9063" style="stroke:#000000;stroke-width:1.5625;" width="571.875" x="265.625" y="895.25"/><text fill="#000000" font-family="sans-serif" font-size="21.875" font-weight="bold" lengthAdjust="spacing" textLength="148.4375" x="477.3438" y="919.5237">External APIs</text></g><!--entity Login / Signup--><g id="elem_Login / Signup"><rect fill="#F1F1F1" height="72.6379" rx="3.9063" ry="3.9063" style="stroke:#181818;stroke-width:0.78125;" width="220.3125" x="2980.4688" y="403.1094"/><rect fill="#F1F1F1" height="15.625" style="stroke:#181818;stroke-width:0.78125;" width="23.4375" x="3169.5313" y="410.9219"/><rect fill="#F1F1F1" height="3.125" style="stroke:#181818;stroke-width:0.78125;" width="6.25" x="3166.4063" y="414.0469"/><rect fill="#F1F1F1" height="3.125" style="stroke:#181818;stroke-width:0.78125;" width="6.25" x="3166.4063" y="420.2969"/><text fill="#000000" font-family="sans-serif" font-size="21.875" lengthAdjust="spacing" textLength="157.8125" x="3003.9063" y="455.5081">Login / Signup</text></g><!--entity Job Search & Apply--><g id="elem_Job Search &amp; Apply"><rect fill="#F1F1F1" height="72.6379" rx="3.9063" ry="3.9063" style="stroke:#181818;stroke-width:0.78125;" width="264.0625" x="2661.7188" y="403.1094"/><rect fill="#F1F1F1" height="15.625" style="stroke:#181818;stroke-width:0.78125;" width="23.4375" x="2894.5313" y="410.9219"/><rect fill="#F1F1F1" height="3.125" style="stroke:#181818;stroke-width:0.78125;" width="6.25" x="2891.4063" y="414.0469"/><rect fill="#F1F1F1" height="3.125" style="stroke:#181818;stroke-width:0.78125;" width="6.25" x="2891.4063" y="420.2969"/><text fill="#000000" font-family="sans-serif" font-size="21.875" lengthAdjust="spacing" textLength="201.5625" x="2685.1563" y="455.5081">Job Search &amp; Apply</text></g><!--entity Resume Upload--><g id="elem_Resume Upload"><rect fill="#F1F1F1" height="72.6379" rx="3.9063" ry="3.9063" style="stroke:#181818;stroke-width:0.78125;" width="229.6875" x="2816.4063" y="683.5625"/><rect fill="#F1F1F1" height="15.625" style="stroke:#181818;stroke-width:0.78125;" width="23.4375" x="3014.8438" y="691.375"/><rect fill="#F1F1F1" height="3.125" style="stroke:#181818;stroke-width:0.78125;" width="6.25" x="3011.7188" y="694.5"/><rect fill="#F1F1F1" height="3.125" style="stroke:#181818;stroke-width:0.78125;" width="6.25" x="3011.7188" y="700.75"/><text fill="#000000" font-family="sans-serif" font-size="21.875" lengthAdjust="spacing" textLength="167.1875" x="2839.8438" y="735.9612">Resume Upload</text></g><!--entity Request Validation--><g id="elem_Request Validation"><rect fill="#F1F1F1" height="72.6379" rx="3.9063" ry="3.9063" style="stroke:#181818;stroke-width:0.78125;" width="262.5" x="1750" y="683.5625"/><rect fill="#F1F1F1" height="15.625" style="stroke:#181818;stroke-width:0.78125;" width="23.4375" x="1981.25" y="691.375"/><rect fill="#F1F1F1" height="3.125" style="stroke:#181818;stroke-width:0.78125;" width="6.25" x="1978.125" y="694.5"/><rect fill="#F1F1F1" height="3.125" style="stroke:#181818;stroke-width:0.78125;" width="6.25" x="1978.125" y="700.75"/><text fill="#000000" font-family="sans-serif" font-size="21.875" lengthAdjust="spacing" textLength="200" x="1773.4375" y="735.9612">Request Validation</text></g><!--entity Authentication & Authorization--><g id="elem_Authentication &amp; Authorization"><rect fill="#F1F1F1" height="72.6379" rx="3.9063" ry="3.9063" style="stroke:#181818;stroke-width:0.78125;" width="396.875" x="2067.1875" y="683.5625"/><rect fill="#F1F1F1" height="15.625" style="stroke:#181818;stroke-width:0.78125;" width="23.4375" x="2432.8125" y="691.375"/><rect fill="#F1F1F1" height="3.125" style="stroke:#181818;stroke-width:0.78125;" width="6.25" x="2429.6875" y="694.5"/><rect fill="#F1F1F1" height="3.125" style="stroke:#181818;stroke-width:0.78125;" width="6.25" x="2429.6875" y="700.75"/><text fill="#000000" font-family="sans-serif" font-size="21.875" lengthAdjust="spacing" textLength="334.375" x="2090.625" y="735.9612">Authentication &amp; Authorization</text></g><!--entity Resume Parsing--><g id="elem_Resume Parsing"><rect fill="#F1F1F1" height="72.6379" rx="3.9063" ry="3.9063" style="stroke:#181818;stroke-width:0.78125;" width="232.8125" x="936.7188" y="683.5625"/><rect fill="#F1F1F1" height="15.625" style="stroke:#181818;stroke-width:0.78125;" width="23.4375" x="1138.2813" y="691.375"/><rect fill="#F1F1F1" height="3.125" style="stroke:#181818;stroke-width:0.78125;" width="6.25" x="1135.1563" y="694.5"/><rect fill="#F1F1F1" height="3.125" style="stroke:#181818;stroke-width:0.78125;" width="6.25" x="1135.1563" y="700.75"/><text fill="#000000" font-family="sans-serif" font-size="21.875" lengthAdjust="spacing" textLength="170.3125" x="960.1563" y="735.9612">Resume Parsing</text></g><!--entity Job Matching (BERT + Faiss)--><g id="elem_Job Matching (BERT + Faiss)"><rect fill="#F1F1F1" height="72.6379" rx="3.9063" ry="3.9063" style="stroke:#181818;stroke-width:0.78125;" width="359.375" x="1223.4375" y="683.5625"/><rect fill="#F1F1F1" height="15.625" style="stroke:#181818;stroke-width:0.78125;" width="23.4375" x="1551.5625" y="691.375"/><rect fill="#F1F1F1" height="3.125" style="stroke:#181818;stroke-width:0.78125;" width="6.25" x="1548.4375" y="694.5"/><rect fill="#F1F1F1" height="3.125" style="stroke:#181818;stroke-width:0.78125;" width="6.25" x="1548.4375" y="700.75"/><text fill="#000000" font-family="sans-serif" font-size="21.875" lengthAdjust="spacing" textLength="296.875" x="1246.875" y="735.9612">Job Matching (BERT + Faiss)</text></g><!--entity Recommendation Engine--><g id="elem_Recommendation Engine"><rect fill="#F1F1F1" height="72.6379" rx="3.9063" ry="3.9063" style="stroke:#181818;stroke-width:0.78125;" width="329.6875" x="938.2813" y="992.125"/><rect fill="#F1F1F1" height="15.625" style="stroke:#181818;stroke-width:0.78125;" width="23.4375" x="1236.7188" y="999.9375"/><rect fill="#F1F1F1" height="3.125" style="stroke:#181818;stroke-width:0.78125;" width="6.25" x="1233.5938" y="1003.0625"/><rect fill="#F1F1F1" height="3.125" style="stroke:#181818;stroke-width:0.78125;" width="6.25" x="1233.5938" y="1009.3125"/><text fill="#000000" font-family="sans-serif" font-size="21.875" lengthAdjust="spacing" textLength="267.1875" x="961.7188" y="1044.5237">Recommendation Engine</text></g><!--entity MongoDB (Users, Jobs, Applications)--><g id="elem_MongoDB (Users, Jobs, Applications)"><rect fill="#F1F1F1" height="72.6379" rx="3.9063" ry="3.9063" style="stroke:#181818;stroke-width:0.78125;" width="450" x="2379.6875" y="992.125"/><rect fill="#F1F1F1" height="15.625" style="stroke:#181818;stroke-width:0.78125;" width="23.4375" x="2798.4375" y="999.9375"/><rect fill="#F1F1F1" height="3.125" style="stroke:#181818;stroke-width:0.78125;" width="6.25" x="2795.3125" y="1003.0625"/><rect fill="#F1F1F1" height="3.125" style="stroke:#181818;stroke-width:0.78125;" width="6.25" x="2795.3125" y="1009.3125"/><text fill="#000000" font-family="sans-serif" font-size="21.875" lengthAdjust="spacing" textLength="387.5" x="2403.125" y="1044.5237">MongoDB (Users, Jobs, Applications)</text></g><!--entity VectorDB (Embeddings)--><g id="elem_VectorDB (Embeddings)"><rect fill="#F1F1F1" height="72.6379" rx="3.9063" ry="3.9063" style="stroke:#181818;stroke-width:0.78125;" width="314.0625" x="2885.1563" y="992.125"/><rect fill="#F1F1F1" height="15.625" style="stroke:#181818;stroke-width:0.78125;" width="23.4375" x="3167.9688" y="999.9375"/><rect fill="#F1F1F1" height="3.125" style="stroke:#181818;stroke-width:0.78125;" width="6.25" x="3164.8438" y="1003.0625"/><rect fill="#F1F1F1" height="3.125" style="stroke:#181818;stroke-width:0.78125;" width="6.25" x="3164.8438" y="1009.3125"/><text fill="#000000" font-family="sans-serif" font-size="21.875" lengthAdjust="spacing" textLength="251.5625" x="2908.5938" y="1044.5237">VectorDB (Embeddings)</text></g><!--entity Redis (Cache)--><g id="elem_Redis (Cache)"><rect fill="#F1F1F1" height="72.6379" rx="3.9063" ry="3.9063" style="stroke:#181818;stroke-width:0.78125;" width="207.8125" x="2500.7813" y="1188.2031"/><rect fill="#F1F1F1" height="15.625" style="stroke:#181818;stroke-width:0.78125;" width="23.4375" x="2677.3438" y="1196.0156"/><rect fill="#F1F1F1" height="3.125" style="stroke:#181818;stroke-width:0.78125;" width="6.25" x="2674.2188" y="1199.1406"/><rect fill="#F1F1F1" height="3.125" style="stroke:#181818;stroke-width:0.78125;" width="6.25" x="2674.2188" y="1205.3906"/><text fill="#000000" font-family="sans-serif" font-size="21.875" lengthAdjust="spacing" textLength="145.3125" x="2524.2188" y="1240.6018">Redis (Cache)</text></g><!--entity LinkedIn API--><g id="elem_LinkedIn API"><rect fill="#F1F1F1" height="72.6379" rx="3.9063" ry="3.9063" style="stroke:#181818;stroke-width:0.78125;" width="193.75" x="303.125" y="992.125"/><rect fill="#F1F1F1" height="15.625" style="stroke:#181818;stroke-width:0.78125;" width="23.4375" x="465.625" y="999.9375"/><rect fill="#F1F1F1" height="3.125" style="stroke:#181818;stroke-width:0.78125;" width="6.25" x="462.5" y="1003.0625"/><rect fill="#F1F1F1" height="3.125" style="stroke:#181818;stroke-width:0.78125;" width="6.25" x="462.5" y="1009.3125"/><text fill="#000000" font-family="sans-serif" font-size="21.875" lengthAdjust="spacing" textLength="131.25" x="326.5625" y="1044.5237">LinkedIn API</text></g><!--entity Job Boards API--><g id="elem_Job Boards API"><rect fill="#F1F1F1" height="72.6379" rx="3.9063" ry="3.9063" style="stroke:#181818;stroke-width:0.78125;" width="217.1875" x="552.3438" y="992.125"/><rect fill="#F1F1F1" height="15.625" style="stroke:#181818;stroke-width:0.78125;" width="23.4375" x="738.2813" y="999.9375"/><rect fill="#F1F1F1" height="3.125" style="stroke:#181818;stroke-width:0.78125;" width="6.25" x="735.1563" y="1003.0625"/><rect fill="#F1F1F1" height="3.125" style="stroke:#181818;stroke-width:0.78125;" width="6.25" x="735.1563" y="1009.3125"/><text fill="#000000" font-family="sans-serif" font-size="21.875" lengthAdjust="spacing" textLength="154.6875" x="575.7813" y="1044.5237">Job Boards API</text></g><!--entity USER--><g id="elem_USER"><ellipse cx="2457.8125" cy="21.875" fill="#F1F1F1" rx="12.5" ry="12.5" style="stroke:#181818;stroke-width:0.78125;"/><path d="M2457.8125,34.375 L2457.8125,76.5625 M2437.5,46.875 L2478.125,46.875 M2457.8125,76.5625 L2437.5,100 M2457.8125,76.5625 L2478.125,100 " fill="none" style="stroke:#181818;stroke-width:0.78125;"/><text fill="#000000" font-family="sans-serif" font-size="21.875" lengthAdjust="spacing" textLength="48.4375" x="2433.5938" y="123.4924">User</text></g><!--entity RECRUITER--><g id="elem_RECRUITER"><ellipse cx="2753.125" cy="21.875" fill="#F1F1F1" rx="12.5" ry="12.5" style="stroke:#181818;stroke-width:0.78125;"/><path d="M2753.125,34.375 L2753.125,76.5625 M2732.8125,46.875 L2773.4375,46.875 M2753.125,76.5625 L2732.8125,100 M2753.125,76.5625 L2773.4375,100 " fill="none" style="stroke:#181818;stroke-width:0.78125;"/><text fill="#000000" font-family="sans-serif" font-size="21.875" lengthAdjust="spacing" textLength="96.875" x="2704.6875" y="123.4924">Recruiter</text></g><!--entity EXTERNAL_APIS--><g id="elem_EXTERNAL_APIS"><ellipse cx="100" cy="673.4063" fill="#F1F1F1" rx="12.5" ry="12.5" style="stroke:#181818;stroke-width:0.78125;"/><path d="M100,685.9063 L100,728.0938 M79.6875,698.4063 L120.3125,698.4063 M100,728.0938 L79.6875,751.5313 M100,728.0938 L120.3125,751.5313 " fill="none" style="stroke:#181818;stroke-width:0.78125;"/><text fill="#000000" font-family="sans-serif" font-size="21.875" lengthAdjust="spacing" textLength="181.25" x="9.375" y="775.0237">External Job APIs</text></g><!--link USER to FRONTEND--><g id="link_USER_FRONTEND"><path d="M2443.625,128.5781 C2440.4219,151.7344 2439.7656,178.2969 2446.875,201.5469 C2465.1016,261.1719 2503.9961,319.3516 2538.7969,363.0645 C2556.1973,384.9209 2572.5742,403.1606 2584.8325,416.156 C2587.8971,419.4048 2590.7043,422.3259 2593.2056,424.8938 C2593.362,425.0543 2586.9691,418.5041 2587.123,418.6619 " fill="none" id="USER-to-FRONTEND" style="stroke:#181818;stroke-width:1.5625;"/><polygon fill="#181818" points="2593.671,425.3711,2588.3218,410.9419,2588.2144,419.7801,2579.3762,419.6726,2593.671,425.3711" style="stroke:#181818;stroke-width:1.5625;"/><text fill="#000000" font-family="sans-serif" font-size="20.3125" lengthAdjust="spacing" textLength="229.6875" x="2448.4375" y="196.1849">Login / Upload Resume</text></g><!--link FRONTEND to API_GATEWAY--><g id="link_FRONTEND_API_GATEWAY"><path d="M2593.0917,441.6594 C2592.7222,441.679 2592.3453,441.699 2591.9613,441.7195 C2591.1932,441.7605 2590.3963,441.8031 2589.5711,441.8474 C2586.2701,442.0247 2582.5159,442.229 2578.342,442.4602 C2561.6464,443.3849 2538.2351,444.7401 2510.2495,446.5183 C2454.2783,450.0747 2380.0098,455.3232 2304.5742,462.2051 C2153.7031,475.9688 1998.1641,496.2656 1975,522.625 C1967.2031,531.4844 1966.75,540.7344 1975,549.1875 C1994.9531,569.625 2467.2813,543.1875 2489.0625,561.6875 C2495.709,567.3281 2501.1692,573.9519 2505.6344,581.2315 C2506.1926,582.1415 2506.7352,583.0617 2507.2626,583.9915 C2507.5263,584.4564 2507.7863,584.9237 2508.0425,585.3933 C2508.1705,585.6281 2503.8757,577.5969 2504.0019,577.8329 " fill="none" id="FRONTEND-to-API_GATEWAY" style="stroke:#181818;stroke-width:1.5625;"/><polygon fill="#181818" points="2508.4239,586.0995,2507.302,570.7516,2504.7389,579.2106,2496.2799,576.6475,2508.4239,586.0995" style="stroke:#181818;stroke-width:1.5625;"/><text fill="#000000" font-family="sans-serif" font-size="20.3125" lengthAdjust="spacing" textLength="85.9375" x="1976.5625" y="543.8256">API Calls</text></g><!--link API_GATEWAY to FRONTEND--><g id="link_API_GATEWAY_FRONTEND"><path d="M2508.3469,586.1927 C2508.2211,585.9563 2508.0944,585.7203 2507.9668,585.485 C2507.7115,585.0143 2507.4524,584.5459 2507.1896,584.0799 C2506.664,583.1478 2506.1233,582.2253 2505.5671,581.3129 C2501.1179,574.0137 2495.6797,567.3633 2489.0625,561.6875 C2458.6094,535.5469 2156,578.0469 2128.125,549.1875 C2119.9219,540.6875 2120.5156,531.6406 2128.125,522.625 C2162.6094,481.75 2280.5508,461.3398 2390.6563,451.1484 C2445.709,446.0527 2498.8027,443.5117 2538.5259,442.2446 C2558.3875,441.6111 2574.9064,441.296 2586.6562,441.1393 C2588.1249,441.1198 2589.5191,441.1026 2590.836,441.0877 C2591.4945,441.0802 2592.1336,441.0733 2592.7531,441.0669 C2593.0628,441.0636 2583.9931,441.1534 2584.2929,441.1504 " fill="none" id="API_GATEWAY-to-FRONTEND" style="stroke:#181818;stroke-width:1.5625;"/><polygon fill="#181818" points="2593.6674,441.0576,2579.5437,434.9472,2585.8553,441.135,2579.6675,447.4466,2593.6674,441.0576" style="stroke:#181818;stroke-width:1.5625;"/><text fill="#000000" font-family="sans-serif" font-size="20.3125" lengthAdjust="spacing" textLength="146.875" x="2129.6875" y="543.8256">Send Response</text></g><!--link API_GATEWAY to PROCESSING--><g id="link_API_GATEWAY_PROCESSING"><path d="M2507.8898,586.0835 C2507.7652,585.8619 2507.6398,585.6408 2507.5135,585.4202 C2507.261,584.9792 2507.0049,584.5403 2506.7453,584.1038 C2506.2262,583.2307 2505.693,582.3669 2505.1453,581.5127 C2500.7639,574.6797 2495.459,568.4707 2489.0625,563.1719 C2423.6875,509.0156 1798.2187,520.2031 1725,563.1719 C1692.7578,582.1016 1671.5156,617.7148 1658.0469,650.2129 C1656.3633,654.2751 1654.8011,658.2887 1653.3542,662.215 C1652.6307,664.1781 1651.936,666.1194 1651.2693,668.034 C1650.9359,668.9913 1650.6096,669.9419 1650.2901,670.8853 C1650.2103,671.1211 1653.1191,662.4705 1653.0401,662.7054 " fill="none" id="API_GATEWAY-to-PROCESSING" style="stroke:#181818;stroke-width:1.5625;"/><polygon fill="#181818" points="1650.0519,671.5914,1660.4582,660.2545,1652.542,664.1864,1648.6101,656.2703,1650.0519,671.5914" style="stroke:#181818;stroke-width:1.5625;"/><text fill="#000000" font-family="sans-serif" font-size="20.3125" lengthAdjust="spacing" textLength="170.3125" x="2291.4063" y="543.8256">Process Requests</text></g><!--link PROCESSING to DATABASE--><g id="link_PROCESSING_DATABASE"><path d="M1650.2531,740.6856 C1650.3418,740.8115 1650.4309,740.9379 1650.5205,741.0646 C1650.8786,741.5717 1651.2433,742.0859 1651.6145,742.6068 C1652.3568,743.6486 1653.125,744.7173 1653.9183,745.8103 C1657.0914,750.1821 1660.6655,754.9414 1664.5879,759.9141 C1680.2773,779.8047 1701.5391,803.1094 1725,818.6875 C1841.6641,896.1406 1990.2422,947.9844 2110.3574,980.5664 C2170.415,996.8574 2223.3569,1008.333 2261.636,1015.7866 C2280.7755,1019.5134 2296.2493,1022.2347 2307.114,1024.0497 C2308.4721,1024.2766 2309.7582,1024.4893 2310.9704,1024.6881 C2311.2735,1024.7378 2302.3193,1023.2767 2302.6131,1023.3246 " fill="none" id="PROCESSING-to-DATABASE" style="stroke:#181818;stroke-width:1.5625;"/><polygon fill="#181818" points="2311.8657,1024.8345,2298.9934,1016.4012,2304.1552,1023.5762,2296.9802,1028.738,2311.8657,1024.8345" style="stroke:#181818;stroke-width:1.5625;"/><text fill="#000000" font-family="sans-serif" font-size="20.3125" lengthAdjust="spacing" textLength="101.5625" x="1785.2344" y="852.3881">Store Data</text></g><!--link PROCESSING to EXT--><g id="link_PROCESSING_EXT"><path d="M899.9089,879.5148 C899.6735,879.7122 899.4388,879.9106 899.2048,880.1097 C898.7367,880.5081 898.2713,880.9099 897.8086,881.3151 C896.8831,882.1254 895.9682,882.9491 895.0639,883.7856 C893.2552,885.4585 891.4887,887.1824 889.7635,888.9519 C882.8627,896.0298 876.6233,903.8369 870.9956,912.0293 C859.7402,928.4141 850.9316,946.3398 844.1719,963.0547 C842.4819,967.2334 840.92,971.3364 839.48,975.3208 C839.12,976.3169 838.7676,977.3055 838.4227,978.2861 C838.2503,978.7764 838.0797,979.2647 837.911,979.7508 C837.8266,979.9939 837.7428,980.2365 837.6594,980.4785 C837.6176,980.5995 840.6218,971.8539 840.5803,971.9746 " fill="none" id="PROCESSING-to-EXT" style="stroke:#181818;stroke-width:1.5625;"/><polygon fill="#181818" points="837.5346,980.8411,848.0142,969.5719,840.0727,973.4524,836.1922,965.5109,837.5346,980.8411" style="stroke:#181818;stroke-width:1.5625;"/><text fill="#000000" font-family="sans-serif" font-size="20.3125" lengthAdjust="spacing" textLength="190.625" x="1528.5781" y="852.3881">Fetch External Data</text></g><!--link DATABASE to API_GATEWAY--><g id="link_DATABASE_API_GATEWAY"><path d="M2339.1387,895.1874 C2339.5995,894.1914 2340.0723,893.2018 2340.5573,892.2191 C2344.4373,884.3577 2349.0996,876.9414 2354.6875,870.25 C2395.6875,821.1563 2445.4375,865.4844 2489.0625,818.6875 C2492.7949,814.6855 2496.0588,810.2268 2498.913,805.4806 C2500.34,803.1075 2501.6646,800.6625 2502.8941,798.1668 C2503.5089,796.919 2504.0999,795.6585 2504.668,794.3879 C2504.739,794.2291 2501.0211,802.6455 2501.0914,802.4864 " fill="none" id="DATABASE-to-API_GATEWAY" style="stroke:#181818;stroke-width:1.5625;"/><polygon fill="#181818" points="2504.88,793.911,2493.4802,804.2483,2501.7228,801.0571,2504.914,809.2998,2504.88,793.911" style="stroke:#181818;stroke-width:1.5625;"/><text fill="#000000" font-family="sans-serif" font-size="20.3125" lengthAdjust="spacing" textLength="142.1875" x="2474.6875" y="852.3881">Return Results</text></g><!--link RECRUITER to FRONTEND--><g id="link_RECRUITER_FRONTEND"><path d="M2738.75,128.4531 C2729.5313,154.4063 2714.8906,183.1563 2692.1875,201.5469 C2672.8125,217.2344 2654.3594,195.6719 2637.5,214.0469 C2620.7891,232.2578 2610.4102,255.0605 2604.2588,279.092 C2602.7209,285.0999 2601.4473,291.1846 2600.405,297.2935 C2600.1445,298.8207 2599.8984,300.3495 2599.6662,301.8789 C2599.5501,302.6436 2599.4375,303.4085 2599.3283,304.1735 C2599.2738,304.556 2600.504,295.6518 2600.4511,296.0343 " fill="none" id="RECRUITER-to-FRONTEND" style="stroke:#181818;stroke-width:1.5625;"/><polygon fill="#181818" points="2599.1671,305.321,2607.2842,292.247,2600.2371,297.5821,2594.902,290.535,2599.1671,305.321" style="stroke:#181818;stroke-width:1.5625;"/><text fill="#000000" font-family="sans-serif" font-size="20.3125" lengthAdjust="spacing" textLength="90.625" x="2717.1563" y="196.1849">Post Jobs</text></g><!--link EXTERNAL_APIS to EXT--><g id="link_EXTERNAL_APIS_EXT"><path d="M191.0313,765.25 C262.5781,797.3438 365.7344,838.5313 460.9375,857.75 C479.1563,861.4375 781.2188,858.125 795.3125,870.25 C801.9219,875.9355 807.3542,882.5935 811.7992,889.8985 C812.3548,890.8116 812.895,891.7349 813.4201,892.6676 C813.6827,893.1339 813.9415,893.6026 814.1966,894.0737 C814.3241,894.3092 810.0532,886.2656 810.1788,886.5023 " fill="none" id="EXTERNAL_APIS-to-EXT" style="stroke:#181818;stroke-width:1.5625;"/><polygon fill="#181818" points="814.5764,894.7819,813.4998,879.4307,810.9118,887.8822,802.4603,885.2942,814.5764,894.7819" style="stroke:#181818;stroke-width:1.5625;"/><text fill="#000000" font-family="sans-serif" font-size="20.3125" lengthAdjust="spacing" textLength="175" x="462.5" y="852.3881">Fetch Job Listings</text></g><!--SRC=[VLJRRjf047ttLupoq1ArwUMXBqYjP8D1L42G3McZgeeszjHiCRlkxZe9hVBldLryepAr48APuvqpPywitd5HCCNsa1OStdzuv-aceZ0nJ6GvmXyFw0bOiikKB4KwahbKCEVPramLEnopKgMeZfaW9wYBJgGmiJdG6O7CK-_Pyrv-x7iWV3Ae1CiX58ORZXfwSHvB31Mus6XK5y0qRE8mgeCH9ghafif4uIZQpDPjkYdnMTw3lvff1mk_4cJfp-ye4f-b5n-qmJsCg1ryCcUujO9Ts18BPf8j5rdrigiMtyRhSE44fKzR36n3CAFJrG-MO5k0K9rZ9yeI42aC8gIktlpKy1QMn8X-NRe2a-XwkGwNusfct-Oouu90CSz4MNm_1Ysx69bAjl02_AB83rKYGbtk4JP5BbbgOpIm4vea4aoPmKTsECUn0t6CwF_Tr5-7N_pRcbI4lqhK1cvOpbDck1HLVRyqMoG392veoL50Alwx0VrBQALaWbexcL4zyAJhd5DYFL17S1LTZy8udYsdBJydmuefY-w8renq48JH6bx1X76jBnlr4hdVqtYEx4D1qcCVwJ4px9vff0PZiYRBpWwyWnonP8kEyDXV-u4VXpNTXHIP70Smi2RIhws_wTlEjHAoONY3TXKiDDpVOvfIAntsATSmS6Kk-rWt-sDtvnpX4r2zO8qPkTXXEXCssL4ra4obkWu-_-UMi7B099UFvwu7Unt0LIeVnTMdTXU6KA_1qTbm7B3N0EetkbuTEhEFM9vhhnkliHtR36iRGkLixNMozGlDs8PkwkYwwGDQnOOmGV9QAxe3DqVq4uxGb4guxdBJpxgZIMml4i8MP13qckko3xgIjAtMLjx9TTdBs4vqphMntlB-0W00]--></g></svg>